<svg width="64" height="32" viewBox="0 0 64 32" fill="none" xmlns="http://www.w3.org/2000/svg">
<path d="M0.512 6.8V1.382H10.634V32H4.586V6.8H0.512ZM18.2908 25.364C20.9788 23.124 23.1208 21.262 24.7168 19.778C26.3128 18.266 27.6428 16.698 28.7068 15.074C29.7708 13.45 30.3028 11.854 30.3028 10.286C30.3028 8.858 29.9668 7.738 29.2948 6.926C28.6228 6.114 27.5868 5.708 26.1868 5.708C24.7868 5.708 23.7088 6.184 22.9528 7.136C22.1968 8.06 21.8048 9.334 21.7768 10.958H16.0648C16.1768 7.598 17.1708 5.05 19.0468 3.314C20.9508 1.578 23.3588 0.709997 26.2708 0.709997C29.4628 0.709997 31.9128 1.564 33.6208 3.272C35.3288 4.952 36.1828 7.178 36.1828 9.95C36.1828 12.134 35.5948 14.22 34.4188 16.208C33.2428 18.196 31.8988 19.932 30.3868 21.416C28.8748 22.872 26.9008 24.636 24.4648 26.708H36.8548V31.58H16.1068V27.212L18.2908 25.364Z" fill="#2B2B2B"/>
<path d="M63.198 19.61H55.26V27.758H49.716V19.61H41.778V14.486H49.716V6.338H55.26V14.486H63.198V19.61Z" fill="url(#paint0_linear_180_5)"/>
<defs>
<linearGradient id="paint0_linear_180_5" x1="39.0714" y1="3" x2="37.2196" y2="24.6066" gradientUnits="userSpaceOnUse">
<stop stop-color="#D33ED4"/>
<stop offset="0.484375" stop-color="#5A38DD"/>
<stop offset="1" stop-color="#2DCCFD"/>
</linearGradient>
</defs>
</svg>
