<svg width="106" height="32" viewBox="0 0 106 32" fill="none" xmlns="http://www.w3.org/2000/svg">
<path d="M0.974 26.036V21.416L14.708 1.76H21.554V20.912H25.25V26.036H21.554V32H15.674V26.036H0.974ZM16.052 8.06L7.442 20.912H16.052V8.06ZM28.9936 16.292C28.9936 11.448 29.8616 7.654 31.5976 4.91C33.3616 2.166 36.2736 0.793999 40.3336 0.793999C44.3936 0.793999 47.2916 2.166 49.0276 4.91C50.7916 7.654 51.6736 11.448 51.6736 16.292C51.6736 21.164 50.7916 24.986 49.0276 27.758C47.2916 30.53 44.3936 31.916 40.3336 31.916C36.2736 31.916 33.3616 30.53 31.5976 27.758C29.8616 24.986 28.9936 21.164 28.9936 16.292ZM45.8776 16.292C45.8776 14.22 45.7376 12.484 45.4576 11.084C45.2056 9.656 44.6736 8.494 43.8616 7.598C43.0776 6.702 41.9016 6.254 40.3336 6.254C38.7656 6.254 37.5756 6.702 36.7636 7.598C35.9796 8.494 35.4476 9.656 35.1676 11.084C34.9156 12.484 34.7896 14.22 34.7896 16.292C34.7896 18.42 34.9156 20.212 35.1676 21.668C35.4196 23.096 35.9516 24.258 36.7636 25.154C37.5756 26.022 38.7656 26.456 40.3336 26.456C41.9016 26.456 43.0916 26.022 43.9036 25.154C44.7156 24.258 45.2476 23.096 45.4996 21.668C45.7516 20.212 45.8776 18.42 45.8776 16.292ZM56.1459 16.292C56.1459 11.448 57.0139 7.654 58.7499 4.91C60.5139 2.166 63.4259 0.793999 67.4859 0.793999C71.5459 0.793999 74.4439 2.166 76.1799 4.91C77.9439 7.654 78.8259 11.448 78.8259 16.292C78.8259 21.164 77.9439 24.986 76.1799 27.758C74.4439 30.53 71.5459 31.916 67.4859 31.916C63.4259 31.916 60.5139 30.53 58.7499 27.758C57.0139 24.986 56.1459 21.164 56.1459 16.292ZM73.0299 16.292C73.0299 14.22 72.8899 12.484 72.6099 11.084C72.3579 9.656 71.8259 8.494 71.0139 7.598C70.2299 6.702 69.0539 6.254 67.4859 6.254C65.9179 6.254 64.7279 6.702 63.9159 7.598C63.1319 8.494 62.5999 9.656 62.3199 11.084C62.0679 12.484 61.9419 14.22 61.9419 16.292C61.9419 18.42 62.0679 20.212 62.3199 21.668C62.5719 23.096 63.1039 24.258 63.9159 25.154C64.7279 26.022 65.9179 26.456 67.4859 26.456C69.0539 26.456 70.2439 26.022 71.0559 25.154C71.8679 24.258 72.3999 23.096 72.6519 21.668C72.9039 20.212 73.0299 18.42 73.0299 16.292Z" fill="#2B2B2B"/>
<path d="M105.936 19.61H97.9983V27.758H92.4543V19.61H84.5163V14.486H92.4543V6.338H97.9983V14.486H105.936V19.61Z" fill="url(#paint0_linear_180_9)"/>
<defs>
<linearGradient id="paint0_linear_180_9" x1="64.4107" y1="3" x2="63.271" y2="24.7055" gradientUnits="userSpaceOnUse">
<stop stop-color="#D33ED4"/>
<stop offset="0.484375" stop-color="#5A38DD"/>
<stop offset="1" stop-color="#2DCCFD"/>
</linearGradient>
</defs>
</svg>
