<svg width="105" height="33" viewBox="0 0 105 33" fill="none" xmlns="http://www.w3.org/2000/svg">
<path d="M16.102 9.026C15.822 7.85 15.332 6.968 14.632 6.38C13.96 5.792 12.98 5.498 11.692 5.498C9.76 5.498 8.332 6.282 7.408 7.85C6.512 9.39 6.05 11.91 6.022 15.41C6.694 14.29 7.674 13.422 8.962 12.806C10.25 12.162 11.65 11.84 13.162 11.84C14.982 11.84 16.592 12.232 17.992 13.016C19.392 13.8 20.484 14.948 21.268 16.46C22.052 17.944 22.444 19.736 22.444 21.836C22.444 23.824 22.038 25.602 21.226 27.17C20.442 28.71 19.28 29.914 17.74 30.782C16.2 31.65 14.366 32.084 12.238 32.084C9.326 32.084 7.03 31.44 5.35 30.152C3.698 28.864 2.536 27.072 1.864 24.776C1.22 22.452 0.898 19.596 0.898 16.208C0.898 11.084 1.78 7.22 3.544 4.616C5.308 1.984 8.094 0.667998 11.902 0.667998C14.842 0.667998 17.124 1.466 18.748 3.062C20.372 4.658 21.31 6.646 21.562 9.026H16.102ZM11.818 16.67C10.334 16.67 9.088 17.104 8.08 17.972C7.072 18.84 6.568 20.1 6.568 21.752C6.568 23.404 7.03 24.706 7.954 25.658C8.906 26.61 10.236 27.086 11.944 27.086C13.456 27.086 14.646 26.624 15.514 25.7C16.41 24.776 16.858 23.53 16.858 21.962C16.858 20.338 16.424 19.05 15.556 18.098C14.716 17.146 13.47 16.67 11.818 16.67ZM27.0912 16.292C27.0912 11.448 27.9592 7.654 29.6952 4.91C31.4592 2.166 34.3712 0.793999 38.4312 0.793999C42.4912 0.793999 45.3892 2.166 47.1252 4.91C48.8892 7.654 49.7712 11.448 49.7712 16.292C49.7712 21.164 48.8892 24.986 47.1252 27.758C45.3892 30.53 42.4912 31.916 38.4312 31.916C34.3712 31.916 31.4592 30.53 29.6952 27.758C27.9592 24.986 27.0912 21.164 27.0912 16.292ZM43.9752 16.292C43.9752 14.22 43.8352 12.484 43.5552 11.084C43.3032 9.656 42.7712 8.494 41.9592 7.598C41.1752 6.702 39.9992 6.254 38.4312 6.254C36.8632 6.254 35.6732 6.702 34.8612 7.598C34.0772 8.494 33.5452 9.656 33.2652 11.084C33.0132 12.484 32.8872 14.22 32.8872 16.292C32.8872 18.42 33.0132 20.212 33.2652 21.668C33.5172 23.096 34.0492 24.258 34.8612 25.154C35.6732 26.022 36.8632 26.456 38.4312 26.456C39.9992 26.456 41.1892 26.022 42.0012 25.154C42.8132 24.258 43.3452 23.096 43.5972 21.668C43.8492 20.212 43.9752 18.42 43.9752 16.292ZM54.2436 16.292C54.2436 11.448 55.1116 7.654 56.8476 4.91C58.6116 2.166 61.5236 0.793999 65.5836 0.793999C69.6436 0.793999 72.5416 2.166 74.2776 4.91C76.0416 7.654 76.9236 11.448 76.9236 16.292C76.9236 21.164 76.0416 24.986 74.2776 27.758C72.5416 30.53 69.6436 31.916 65.5836 31.916C61.5236 31.916 58.6116 30.53 56.8476 27.758C55.1116 24.986 54.2436 21.164 54.2436 16.292ZM71.1276 16.292C71.1276 14.22 70.9876 12.484 70.7076 11.084C70.4556 9.656 69.9236 8.494 69.1116 7.598C68.3276 6.702 67.1516 6.254 65.5836 6.254C64.0156 6.254 62.8256 6.702 62.0136 7.598C61.2296 8.494 60.6976 9.656 60.4176 11.084C60.1656 12.484 60.0396 14.22 60.0396 16.292C60.0396 18.42 60.1656 20.212 60.4176 21.668C60.6696 23.096 61.2016 24.258 62.0136 25.154C62.8256 26.022 64.0156 26.456 65.5836 26.456C67.1516 26.456 68.3416 26.022 69.1536 25.154C69.9656 24.258 70.4976 23.096 70.7496 21.668C71.0016 20.212 71.1276 18.42 71.1276 16.292Z" fill="#2B2B2B"/>
<path d="M104.034 19.61H96.0959V27.758H90.5519V19.61H82.6139V14.486H90.5519V6.338H96.0959V14.486H104.034V19.61Z" fill="url(#paint0_linear_180_7)"/>
<defs>
<linearGradient id="paint0_linear_180_7" x1="62.8214" y1="3" x2="61.6715" y2="24.7044" gradientUnits="userSpaceOnUse">
<stop stop-color="#D33ED4"/>
<stop offset="0.484375" stop-color="#5A38DD"/>
<stop offset="1" stop-color="#2DCCFD"/>
</linearGradient>
</defs>
</svg>
