<svg width="32" height="33" viewBox="0 0 32 33" fill="none" xmlns="http://www.w3.org/2000/svg">
<path d="M30.1333 32.5996C26.3111 32.5996 22.5855 31.7475 18.9564 30.0432C15.3274 28.3389 12.1126 26.087 9.312 23.2876C6.51141 20.4882 4.25956 17.2734 2.55644 13.6432C0.853334 10.0129 0.00118519 6.28731 0 2.46628C0 1.93294 0.177778 1.4885 0.533333 1.13294C0.888889 0.777387 1.33333 0.599609 1.86667 0.599609H9.06667C9.48148 0.599609 9.85185 0.732943 10.1778 0.999609C10.5037 1.26628 10.6963 1.60702 10.7556 2.02183L11.9111 8.24405C11.9704 8.65887 11.9627 9.03694 11.888 9.37828C11.8133 9.71961 11.6433 10.023 11.3778 10.2885L7.11111 14.6441C8.35556 16.7774 9.91111 18.7774 11.7778 20.6441C13.6444 22.5107 15.7037 24.1255 17.9556 25.4885L22.1333 21.3107C22.4 21.0441 22.7484 20.8443 23.1787 20.7116C23.6089 20.5789 24.0308 20.5415 24.4444 20.5996L30.5778 21.8441C30.9926 21.9329 31.3333 22.1332 31.6 22.4449C31.8667 22.7566 32 23.1193 32 23.5329V30.7329C32 31.2663 31.8222 31.7107 31.4667 32.0663C31.1111 32.4218 30.6667 32.5996 30.1333 32.5996Z" fill="#2B2B2B"/>
</svg>
