<svg width="222" height="50" viewBox="0 0 222 50" fill="none" xmlns="http://www.w3.org/2000/svg">
<path d="M36.2759 14H33.6978C33.3418 14 33.0532 14.2886 33.0532 14.6445V15.2891H27.7431C27.4771 14.5389 26.7607 14 25.9204 14C25.0802 14 24.3637 14.5389 24.0977 15.2891H18.7876V14.6445C18.7876 14.2886 18.499 14 18.1431 14H15.5649C15.209 14 14.9204 14.2886 14.9204 14.6445V17.2227C14.9204 17.5786 15.209 17.8672 15.5649 17.8672H18.1431C18.499 17.8672 18.7876 17.5786 18.7876 17.2227V16.5695H21.4679C19.1426 18.0422 17.7291 20.5302 17.559 23.1713C16.7998 23.4324 16.2524 24.1533 16.2524 25C16.2524 26.0662 17.1199 26.9336 18.186 26.9336C19.2522 26.9336 20.1196 26.0662 20.1196 25C20.1196 24.1673 19.5905 23.4558 18.8508 23.1841C19.0796 20.1485 21.2655 17.534 24.1886 16.7922C24.5054 17.4286 25.1625 17.8672 25.9204 17.8672C26.6783 17.8672 27.3354 17.4286 27.6522 16.7922C30.5753 17.5341 32.7612 20.1486 32.9901 23.1842C32.2504 23.4558 31.7212 24.1673 31.7212 25C31.7212 26.0662 32.5886 26.9336 33.6548 26.9336C34.721 26.9336 35.5884 26.0662 35.5884 25C35.5884 24.1533 35.041 23.4324 34.2818 23.1713C34.1114 20.5249 32.6937 18.048 30.373 16.5781H33.0532V17.2227C33.0532 17.5786 33.3418 17.8672 33.6978 17.8672H36.2759C36.6318 17.8672 36.9204 17.5786 36.9204 17.2227V14.6445C36.9204 14.2886 36.6318 14 36.2759 14ZM17.4985 16.5781H16.2095V15.2891H17.4985V16.5781ZM18.186 25.6445C17.8306 25.6445 17.5415 25.3554 17.5415 25C17.5415 24.6446 17.8306 24.3555 18.186 24.3555C18.5414 24.3555 18.8306 24.6446 18.8306 25C18.8306 25.3554 18.5414 25.6445 18.186 25.6445ZM25.9204 16.5781C25.565 16.5781 25.2759 16.289 25.2759 15.9336C25.2759 15.5782 25.565 15.2891 25.9204 15.2891C26.2758 15.2891 26.5649 15.5782 26.5649 15.9336C26.5649 16.289 26.2758 16.5781 25.9204 16.5781ZM33.6548 24.3555C34.0102 24.3555 34.2993 24.6446 34.2993 25C34.2993 25.3554 34.0102 25.6445 33.6548 25.6445C33.2994 25.6445 33.0103 25.3554 33.0103 25C33.0103 24.6446 33.2994 24.3555 33.6548 24.3555ZM35.6313 16.5781H34.3423V15.2891H35.6313V16.5781Z" fill="#ADADAD"/>
<path d="M31.6129 27.2201L26.4567 19.4858C26.4565 19.4855 26.4563 19.4853 26.4561 19.485C26.4542 19.4822 26.4522 19.4796 26.4503 19.4769C26.4415 19.4641 26.4322 19.4517 26.4225 19.4396C26.1508 19.1021 25.6337 19.1249 25.3905 19.4769C25.3886 19.4796 25.3866 19.4822 25.3847 19.485C25.3845 19.4853 25.3843 19.4855 25.3842 19.4858L20.2279 27.2202C20.0574 27.4758 20.0912 27.8162 20.3084 28.0334C21.5944 29.3194 22.4128 31.0003 22.6358 32.7987C22.5357 32.8796 22.4391 32.9663 22.3475 33.06C21.7421 33.6793 21.4087 34.4944 21.4087 35.355C21.4087 35.711 21.6973 35.9996 22.0532 35.9996H29.7876C30.1435 35.9996 30.4321 35.711 30.4321 35.355C30.4321 34.4944 30.0987 33.6793 29.4934 33.06C29.4017 32.9662 29.3051 32.8796 29.205 32.7987C29.4279 31.0002 30.2464 29.3192 31.5323 28.0334C31.7496 27.8162 31.7834 27.4758 31.6129 27.2201ZM25.9204 26.9331C26.2758 26.9331 26.5649 27.2223 26.5649 27.5777C26.5649 27.9331 26.2758 28.2222 25.9204 28.2222C25.565 28.2222 25.2759 27.9331 25.2759 27.5777C25.2759 27.2223 25.565 26.9331 25.9204 26.9331ZM22.8077 34.7105C23.0758 33.9442 23.8028 33.3785 24.6313 33.3785H27.2095C28.038 33.3785 28.765 33.9442 29.0331 34.7105H22.8077ZM27.9934 32.1875C27.7399 32.1228 27.4771 32.0894 27.2095 32.0894H24.6313C24.3637 32.0894 24.1009 32.1228 23.8474 32.1875C23.5457 30.4504 22.7624 28.8265 21.5851 27.5083L25.2759 21.9721V25.755C24.5257 26.021 23.9868 26.7375 23.9868 27.5777C23.9868 28.6439 24.8542 29.5113 25.9204 29.5113C26.9866 29.5113 27.854 28.6439 27.854 27.5777C27.854 26.7375 27.3151 26.021 26.5649 25.755V21.9721L30.2558 27.5083C29.0784 28.8264 28.295 30.4503 27.9934 32.1875Z" fill="#ADADAD"/>
<path d="M48.9784 20.214V26.374C48.9784 27.3447 49.2071 28.0633 49.6644 28.53C50.1311 28.9967 50.7657 29.23 51.5684 29.23C52.3711 29.23 52.9964 29.0013 53.4444 28.544C53.9017 28.0773 54.1304 27.354 54.1304 26.374V20.214H55.1104V26.36C55.1104 27.6013 54.7791 28.5347 54.1164 29.16C53.4631 29.7853 52.6091 30.098 51.5544 30.098C50.4997 30.098 49.6411 29.7853 48.9784 29.16C48.3251 28.5347 47.9984 27.6013 47.9984 26.36V20.214H48.9784ZM58.2763 20.214V30H57.2963V20.214H58.2763ZM64.8495 16.84L60.9855 32.324H60.0195L63.8555 16.84H64.8495ZM67.6132 20.214V26.374C67.6132 27.3447 67.8418 28.0633 68.2992 28.53C68.7658 28.9967 69.4005 29.23 70.2032 29.23C71.0058 29.23 71.6312 29.0013 72.0792 28.544C72.5365 28.0773 72.7652 27.354 72.7652 26.374V20.214H73.7452V26.36C73.7452 27.6013 73.4138 28.5347 72.7512 29.16C72.0978 29.7853 71.2438 30.098 70.1892 30.098C69.1345 30.098 68.2758 29.7853 67.6132 29.16C66.9598 28.5347 66.6332 27.6013 66.6332 26.36V20.214H67.6132ZM79.459 25.114L82.427 30H81.335L78.843 25.912L76.477 30H75.385L78.339 25.072L75.385 20.214H76.477L78.955 24.288L81.349 20.214H82.441L79.459 25.114ZM95.4103 30L94.0803 28.642C93.6043 29.1647 93.0956 29.552 92.5543 29.804C92.013 30.0467 91.4016 30.168 90.7203 30.168C90.067 30.168 89.4883 30.0467 88.9843 29.804C88.4803 29.552 88.0883 29.202 87.8083 28.754C87.5283 28.306 87.3883 27.788 87.3883 27.2C87.3883 26.5093 87.5843 25.9073 87.9763 25.394C88.3683 24.8807 88.9423 24.4793 89.6983 24.19C89.3716 23.826 89.1336 23.49 88.9843 23.182C88.835 22.8647 88.7603 22.524 88.7603 22.16C88.7603 21.5347 88.9843 21.0307 89.4323 20.648C89.8803 20.256 90.4776 20.06 91.2243 20.06C91.9243 20.06 92.4936 20.2607 92.9323 20.662C93.371 21.0633 93.5763 21.586 93.5483 22.23H92.5683C92.5776 21.81 92.447 21.4787 92.1763 21.236C91.915 20.9933 91.5836 20.872 91.1823 20.872C90.753 20.872 90.403 20.9933 90.1323 21.236C89.871 21.4693 89.7403 21.7727 89.7403 22.146C89.7403 22.4447 89.8196 22.734 89.9783 23.014C90.1463 23.294 90.4076 23.6253 90.7623 24.008L93.9823 27.27C94.113 27.0927 94.2903 26.8127 94.5143 26.43L95.4103 24.932H96.4603L95.3963 26.766C95.1443 27.2047 94.8923 27.5967 94.6403 27.942L96.6843 30H95.4103ZM90.7203 29.314C91.271 29.314 91.761 29.2067 92.1903 28.992C92.629 28.7773 93.0443 28.4413 93.4363 27.984L90.3143 24.82C89.017 25.296 88.3683 26.08 88.3683 27.172C88.3683 27.5827 88.4663 27.9513 88.6623 28.278C88.8676 28.5953 89.1476 28.8473 89.5023 29.034C89.857 29.2207 90.263 29.314 90.7203 29.314ZM109.567 23.07C109.287 22.426 108.857 21.922 108.279 21.558C107.709 21.1847 107.037 20.998 106.263 20.998C105.535 20.998 104.881 21.166 104.303 21.502C103.724 21.838 103.267 22.3187 102.931 22.944C102.595 23.56 102.427 24.2787 102.427 25.1C102.427 25.9213 102.595 26.6447 102.931 27.27C103.267 27.8953 103.724 28.376 104.303 28.712C104.881 29.048 105.535 29.216 106.263 29.216C106.944 29.216 107.555 29.0713 108.097 28.782C108.647 28.4833 109.086 28.0633 109.413 27.522C109.749 26.9713 109.94 26.332 109.987 25.604H105.871V24.806H111.023V25.52C110.976 26.3787 110.743 27.158 110.323 27.858C109.903 28.5487 109.338 29.0947 108.629 29.496C107.929 29.8973 107.14 30.098 106.263 30.098C105.357 30.098 104.536 29.888 103.799 29.468C103.061 29.0387 102.478 28.446 102.049 27.69C101.629 26.9247 101.419 26.0613 101.419 25.1C101.419 24.1387 101.629 23.28 102.049 22.524C102.478 21.7587 103.061 21.166 103.799 20.746C104.536 20.3167 105.357 20.102 106.263 20.102C107.308 20.102 108.223 20.3633 109.007 20.886C109.791 21.4087 110.36 22.1367 110.715 23.07H109.567ZM113.798 23.714C114.012 23.238 114.339 22.8693 114.778 22.608C115.226 22.3467 115.772 22.216 116.416 22.216V23.238H116.15C115.44 23.238 114.871 23.4293 114.442 23.812C114.012 24.1947 113.798 24.834 113.798 25.73V30H112.818V22.356H113.798V23.714ZM117.442 26.164C117.442 25.38 117.596 24.694 117.904 24.106C118.221 23.5087 118.655 23.0513 119.206 22.734C119.766 22.4073 120.396 22.244 121.096 22.244C121.824 22.244 122.449 22.412 122.972 22.748C123.504 23.084 123.887 23.5133 124.12 24.036V22.356H125.1V30H124.12V28.306C123.877 28.8287 123.49 29.2627 122.958 29.608C122.435 29.944 121.81 30.112 121.082 30.112C120.391 30.112 119.766 29.9487 119.206 29.622C118.655 29.2953 118.221 28.8333 117.904 28.236C117.596 27.6387 117.442 26.948 117.442 26.164ZM124.12 26.178C124.12 25.562 123.994 25.0207 123.742 24.554C123.49 24.0873 123.145 23.728 122.706 23.476C122.277 23.224 121.801 23.098 121.278 23.098C120.737 23.098 120.251 23.2193 119.822 23.462C119.393 23.7047 119.052 24.0593 118.8 24.526C118.557 24.9833 118.436 25.5293 118.436 26.164C118.436 26.7893 118.557 27.34 118.8 27.816C119.052 28.2827 119.393 28.642 119.822 28.894C120.251 29.1367 120.737 29.258 121.278 29.258C121.801 29.258 122.277 29.132 122.706 28.88C123.145 28.628 123.49 28.2687 123.742 27.802C123.994 27.3353 124.12 26.794 124.12 26.178ZM128.303 24.036C128.546 23.5227 128.929 23.098 129.451 22.762C129.983 22.4167 130.613 22.244 131.341 22.244C132.032 22.244 132.653 22.4073 133.203 22.734C133.763 23.0513 134.197 23.5087 134.505 24.106C134.823 24.694 134.981 25.38 134.981 26.164C134.981 26.948 134.823 27.6387 134.505 28.236C134.197 28.8333 133.763 29.2953 133.203 29.622C132.653 29.9487 132.032 30.112 131.341 30.112C130.623 30.112 129.997 29.944 129.465 29.608C128.933 29.2627 128.546 28.8333 128.303 28.32V33.612H127.337V22.356H128.303V24.036ZM133.987 26.164C133.987 25.5293 133.861 24.9833 133.609 24.526C133.367 24.0593 133.031 23.7047 132.601 23.462C132.172 23.2193 131.687 23.098 131.145 23.098C130.623 23.098 130.142 23.224 129.703 23.476C129.274 23.728 128.933 24.0873 128.681 24.554C128.429 25.0207 128.303 25.562 128.303 26.178C128.303 26.794 128.429 27.3353 128.681 27.802C128.933 28.2687 129.274 28.628 129.703 28.88C130.142 29.132 130.623 29.258 131.145 29.258C131.687 29.258 132.172 29.1367 132.601 28.894C133.031 28.642 133.367 28.2827 133.609 27.816C133.861 27.34 133.987 26.7893 133.987 26.164ZM140.425 22.216C141.003 22.216 141.521 22.3373 141.979 22.58C142.445 22.8227 142.809 23.196 143.071 23.7C143.341 24.1947 143.477 24.8013 143.477 25.52V30H142.511V25.632C142.511 24.8013 142.301 24.1667 141.881 23.728C141.47 23.2893 140.905 23.07 140.187 23.07C139.449 23.07 138.861 23.3033 138.423 23.77C137.984 24.2367 137.765 24.9227 137.765 25.828V30H136.785V19.64H137.765V23.658C138.007 23.2007 138.362 22.846 138.829 22.594C139.305 22.342 139.837 22.216 140.425 22.216ZM146.134 20.914C145.938 20.914 145.77 20.844 145.63 20.704C145.49 20.564 145.42 20.3913 145.42 20.186C145.42 19.9807 145.49 19.8127 145.63 19.682C145.77 19.542 145.938 19.472 146.134 19.472C146.33 19.472 146.498 19.542 146.638 19.682C146.778 19.8127 146.848 19.9807 146.848 20.186C146.848 20.3913 146.778 20.564 146.638 20.704C146.498 20.844 146.33 20.914 146.134 20.914ZM146.624 22.356V30H145.644V22.356H146.624ZM148.395 26.178C148.395 25.3847 148.554 24.694 148.871 24.106C149.188 23.5087 149.627 23.0513 150.187 22.734C150.747 22.4073 151.386 22.244 152.105 22.244C153.048 22.244 153.822 22.4773 154.429 22.944C155.045 23.4107 155.442 24.0453 155.619 24.848H154.569C154.438 24.2973 154.154 23.868 153.715 23.56C153.286 23.2427 152.749 23.084 152.105 23.084C151.592 23.084 151.13 23.2007 150.719 23.434C150.308 23.6673 149.982 24.0173 149.739 24.484C149.506 24.9413 149.389 25.506 149.389 26.178C149.389 26.85 149.506 27.4193 149.739 27.886C149.982 28.3527 150.308 28.7027 150.719 28.936C151.13 29.1693 151.592 29.286 152.105 29.286C152.749 29.286 153.286 29.132 153.715 28.824C154.154 28.5067 154.438 28.068 154.569 27.508H155.619C155.442 28.292 155.045 28.922 154.429 29.398C153.813 29.874 153.038 30.112 152.105 30.112C151.386 30.112 150.747 29.9533 150.187 29.636C149.627 29.3093 149.188 28.852 148.871 28.264C148.554 27.6667 148.395 26.9713 148.395 26.178ZM164.169 20.214C165.252 20.214 166.18 20.41 166.955 20.802C167.73 21.194 168.322 21.7587 168.733 22.496C169.144 23.2333 169.349 24.1107 169.349 25.128C169.349 26.136 169.144 27.0087 168.733 27.746C168.322 28.474 167.73 29.034 166.955 29.426C166.18 29.8087 165.252 30 164.169 30H161.271V20.214H164.169ZM164.169 29.188C165.532 29.188 166.568 28.8333 167.277 28.124C167.996 27.4053 168.355 26.4067 168.355 25.128C168.355 23.84 167.996 22.8367 167.277 22.118C166.568 21.39 165.532 21.026 164.169 21.026H162.251V29.188H164.169ZM178.072 25.786C178.072 26.122 178.062 26.3787 178.044 26.556H171.702C171.73 27.1347 171.87 27.6293 172.122 28.04C172.374 28.4507 172.705 28.7633 173.116 28.978C173.526 29.1833 173.974 29.286 174.46 29.286C175.094 29.286 175.626 29.132 176.056 28.824C176.494 28.516 176.784 28.1007 176.924 27.578H177.96C177.773 28.3247 177.372 28.936 176.756 29.412C176.149 29.8787 175.384 30.112 174.46 30.112C173.741 30.112 173.097 29.9533 172.528 29.636C171.958 29.3093 171.51 28.852 171.184 28.264C170.866 27.6667 170.708 26.9713 170.708 26.178C170.708 25.3847 170.866 24.6893 171.184 24.092C171.501 23.4947 171.944 23.0373 172.514 22.72C173.083 22.4027 173.732 22.244 174.46 22.244C175.188 22.244 175.822 22.4027 176.364 22.72C176.914 23.0373 177.334 23.4667 177.624 24.008C177.922 24.54 178.072 25.1327 178.072 25.786ZM177.078 25.758C177.087 25.1887 176.97 24.7033 176.728 24.302C176.494 23.9007 176.172 23.5973 175.762 23.392C175.351 23.1867 174.903 23.084 174.418 23.084C173.69 23.084 173.069 23.3173 172.556 23.784C172.042 24.2507 171.758 24.9087 171.702 25.758H177.078ZM182.497 30.112C181.619 30.112 180.901 29.9113 180.341 29.51C179.79 29.0993 179.482 28.544 179.417 27.844H180.425C180.471 28.2733 180.672 28.6233 181.027 28.894C181.391 29.1553 181.876 29.286 182.483 29.286C183.015 29.286 183.43 29.16 183.729 28.908C184.037 28.656 184.191 28.3433 184.191 27.97C184.191 27.7087 184.107 27.494 183.939 27.326C183.771 27.158 183.556 27.0273 183.295 26.934C183.043 26.8313 182.697 26.724 182.259 26.612C181.689 26.4627 181.227 26.3133 180.873 26.164C180.518 26.0147 180.215 25.7953 179.963 25.506C179.72 25.2073 179.599 24.8107 179.599 24.316C179.599 23.9427 179.711 23.5973 179.935 23.28C180.159 22.9627 180.476 22.7107 180.887 22.524C181.297 22.3373 181.764 22.244 182.287 22.244C183.108 22.244 183.771 22.454 184.275 22.874C184.779 23.2847 185.049 23.854 185.087 24.582H184.107C184.079 24.134 183.901 23.7747 183.575 23.504C183.257 23.224 182.819 23.084 182.259 23.084C181.764 23.084 181.363 23.2007 181.055 23.434C180.747 23.6673 180.593 23.9567 180.593 24.302C180.593 24.6007 180.681 24.848 180.859 25.044C181.045 25.2307 181.274 25.38 181.545 25.492C181.815 25.5947 182.179 25.7113 182.637 25.842C183.187 25.9913 183.626 26.136 183.953 26.276C184.279 26.416 184.559 26.6213 184.793 26.892C185.026 27.1627 185.147 27.522 185.157 27.97C185.157 28.3807 185.045 28.7493 184.821 29.076C184.597 29.3933 184.284 29.6453 183.883 29.832C183.481 30.0187 183.019 30.112 182.497 30.112ZM187.491 20.914C187.295 20.914 187.127 20.844 186.987 20.704C186.847 20.564 186.777 20.3913 186.777 20.186C186.777 19.9807 186.847 19.8127 186.987 19.682C187.127 19.542 187.295 19.472 187.491 19.472C187.687 19.472 187.855 19.542 187.995 19.682C188.135 19.8127 188.205 19.9807 188.205 20.186C188.205 20.3913 188.135 20.564 187.995 20.704C187.855 20.844 187.687 20.914 187.491 20.914ZM187.981 22.356V30H187.001V22.356H187.981ZM193.407 22.244C194.125 22.244 194.751 22.412 195.283 22.748C195.815 23.084 196.197 23.5087 196.431 24.022V22.356H197.411V30.196C197.411 30.896 197.257 31.5167 196.949 32.058C196.65 32.5993 196.23 33.0147 195.689 33.304C195.147 33.6027 194.531 33.752 193.841 33.752C192.861 33.752 192.044 33.5187 191.391 33.052C190.747 32.5853 190.345 31.9507 190.187 31.148H191.153C191.321 31.68 191.638 32.1047 192.105 32.422C192.581 32.7393 193.159 32.898 193.841 32.898C194.335 32.898 194.779 32.7907 195.171 32.576C195.563 32.3707 195.871 32.0627 196.095 31.652C196.319 31.2413 196.431 30.756 196.431 30.196V28.306C196.188 28.8287 195.801 29.2627 195.269 29.608C194.746 29.944 194.125 30.112 193.407 30.112C192.707 30.112 192.077 29.9487 191.517 29.622C190.966 29.2953 190.532 28.8333 190.215 28.236C189.907 27.6387 189.753 26.948 189.753 26.164C189.753 25.38 189.907 24.694 190.215 24.106C190.532 23.5087 190.966 23.0513 191.517 22.734C192.077 22.4073 192.707 22.244 193.407 22.244ZM196.431 26.178C196.431 25.562 196.305 25.0207 196.053 24.554C195.801 24.0873 195.455 23.728 195.017 23.476C194.587 23.224 194.111 23.098 193.589 23.098C193.047 23.098 192.562 23.2193 192.133 23.462C191.703 23.7047 191.363 24.0593 191.111 24.526C190.868 24.9833 190.747 25.5293 190.747 26.164C190.747 26.7893 190.868 27.34 191.111 27.816C191.363 28.2827 191.703 28.642 192.133 28.894C192.562 29.1367 193.047 29.258 193.589 29.258C194.111 29.258 194.587 29.132 195.017 28.88C195.455 28.628 195.801 28.2687 196.053 27.802C196.305 27.3353 196.431 26.794 196.431 26.178ZM203.232 22.216C204.146 22.216 204.893 22.5007 205.472 23.07C206.05 23.63 206.34 24.4467 206.34 25.52V30H205.374V25.632C205.374 24.8013 205.164 24.1667 204.744 23.728C204.333 23.2893 203.768 23.07 203.05 23.07C202.312 23.07 201.724 23.3033 201.286 23.77C200.847 24.2367 200.628 24.9227 200.628 25.828V30H199.648V22.356H200.628V23.658C200.87 23.1913 201.22 22.8367 201.678 22.594C202.135 22.342 202.653 22.216 203.232 22.216Z" fill="#ADADAD"/>
<rect x="1.42041" y="0.5" width="220" height="49" rx="24.5" stroke="#ADADAD"/>
</svg>
