<svg width="206" height="50" viewBox="0 0 206 50" fill="none" xmlns="http://www.w3.org/2000/svg">
<path d="M31.1805 23.3636H28.7259C28.5089 23.3636 28.3008 23.2774 28.1474 23.124C27.9939 22.9706 27.9077 22.7624 27.9077 22.5455C27.9077 22.3285 27.9939 22.1204 28.1474 21.9669C28.3008 21.8135 28.5089 21.7273 28.7259 21.7273H31.1805C31.3975 21.7273 31.6056 21.8135 31.759 21.9669C31.9124 22.1204 31.9986 22.3285 31.9986 22.5455C31.9986 22.7624 31.9124 22.9706 31.759 23.124C31.6056 23.2774 31.3975 23.3636 31.1805 23.3636ZM23.8168 21.7273H22.9986V20.9091C22.9986 20.6921 22.9124 20.484 22.759 20.3305C22.6056 20.1771 22.3975 20.0909 22.1805 20.0909C21.9635 20.0909 21.7554 20.1771 21.6019 20.3305C21.4485 20.484 21.3623 20.6921 21.3623 20.9091V21.7273H20.5441C20.3271 21.7273 20.119 21.8135 19.9656 21.9669C19.8121 22.1204 19.7259 22.3285 19.7259 22.5455C19.7259 22.7624 19.8121 22.9706 19.9656 23.124C20.119 23.2774 20.3271 23.3636 20.5441 23.3636H21.3623V24.1818C21.3623 24.3988 21.4485 24.6069 21.6019 24.7604C21.7554 24.9138 21.9635 25 22.1805 25C22.3975 25 22.6056 24.9138 22.759 24.7604C22.9124 24.6069 22.9986 24.3988 22.9986 24.1818V23.3636H23.8168C24.0338 23.3636 24.2419 23.2774 24.3954 23.124C24.5488 22.9706 24.635 22.7624 24.635 22.5455C24.635 22.3285 24.5488 22.1204 24.3954 21.9669C24.2419 21.8135 24.0338 21.7273 23.8168 21.7273ZM37.8773 32.4301C37.5689 32.8704 37.1679 33.2379 36.7023 33.5067C36.2368 33.7755 35.718 33.9391 35.1825 33.986C34.647 34.0328 34.1077 33.9619 33.6025 33.7781C33.0974 33.5943 32.6386 33.3021 32.2584 32.922C32.2461 32.9098 32.2339 32.8975 32.2226 32.8842L28.1614 28.2727H24.3773L20.3201 32.8842L20.2843 32.922C19.5932 33.6117 18.6568 33.9993 17.6805 34C17.143 33.9998 16.612 33.8819 16.1249 33.6546C15.6378 33.4273 15.2064 33.0962 14.861 32.6843C14.5156 32.2725 14.2645 31.7901 14.1254 31.2709C13.9863 30.7517 13.9626 30.2083 14.0559 29.679C14.0554 29.6742 14.0554 29.6694 14.0559 29.6647L15.7301 21.0645C15.9793 19.6461 16.7204 18.3608 17.8232 17.4346C18.926 16.5084 20.3199 16.0004 21.7601 16H30.7714C32.2072 16.0023 33.5969 16.5073 34.6991 17.4274C35.8014 18.3476 36.5466 19.6246 36.8055 21.0369V21.0553L38.4797 29.6636C38.4802 29.6684 38.4802 29.6732 38.4797 29.678C38.5663 30.1537 38.5577 30.642 38.4543 31.1144C38.3509 31.5868 38.1548 32.034 37.8773 32.4301ZM30.7714 26.6364C31.9648 26.6364 33.1094 26.1623 33.9533 25.3183C34.7973 24.4744 35.2714 23.3298 35.2714 22.1364C35.2714 20.9429 34.7973 19.7983 33.9533 18.9544C33.1094 18.1105 31.9648 17.6364 30.7714 17.6364H21.7601C20.7036 17.6373 19.6812 18.0108 18.8729 18.6912C18.0646 19.3715 17.5221 20.3152 17.3409 21.356V21.3693L15.6657 29.9694C15.5916 30.3958 15.6547 30.8347 15.8459 31.2229C16.037 31.6112 16.3464 31.9288 16.7294 32.1301C17.1125 32.3314 17.5496 32.406 17.9777 32.3432C18.4059 32.2805 18.8031 32.0835 19.1123 31.7807L23.3995 26.9135C23.4763 26.8264 23.5707 26.7567 23.6765 26.7089C23.7823 26.6611 23.8971 26.6364 24.0132 26.6364H30.7714ZM36.877 29.9694L35.9832 25.3672C35.4334 26.2549 34.6662 26.9876 33.7542 27.4961C32.8422 28.0045 31.8155 28.2718 30.7714 28.2727H30.3418L33.4305 31.7817C33.6633 32.0082 33.9466 32.1763 34.257 32.2721C34.5674 32.3679 34.8961 32.3888 35.2161 32.333C35.7493 32.2389 36.2234 31.9372 36.5345 31.4942C36.8456 31.0512 36.9684 30.5029 36.876 29.9694H36.877Z" fill="url(#paint0_linear_183_81)"/>
<path d="M56.6308 23.07C56.3788 22.5847 56.0288 22.2207 55.5808 21.978C55.1328 21.726 54.6148 21.6 54.0268 21.6C53.3828 21.6 52.8088 21.7447 52.3048 22.034C51.8008 22.3233 51.4042 22.734 51.1148 23.266C50.8348 23.798 50.6948 24.414 50.6948 25.114C50.6948 25.814 50.8348 26.4347 51.1148 26.976C51.4042 27.508 51.8008 27.9187 52.3048 28.208C52.8088 28.4973 53.3828 28.642 54.0268 28.642C54.8948 28.642 55.5995 28.3993 56.1408 27.914C56.6822 27.4287 57.0135 26.7707 57.1348 25.94H53.4808V24.666H58.8428V25.912C58.7402 26.668 58.4695 27.3633 58.0308 27.998C57.6015 28.6327 57.0368 29.1413 56.3368 29.524C55.6462 29.8973 54.8762 30.084 54.0268 30.084C53.1122 30.084 52.2768 29.874 51.5208 29.454C50.7648 29.0247 50.1628 28.432 49.7148 27.676C49.2762 26.92 49.0568 26.066 49.0568 25.114C49.0568 24.162 49.2762 23.308 49.7148 22.552C50.1628 21.796 50.7648 21.208 51.5208 20.788C52.2862 20.3587 53.1215 20.144 54.0268 20.144C55.0628 20.144 55.9822 20.4007 56.7848 20.914C57.5968 21.418 58.1848 22.1367 58.5488 23.07H56.6308ZM59.8849 26.108C59.8849 25.3333 60.0436 24.6473 60.3609 24.05C60.6876 23.4527 61.1263 22.9907 61.6769 22.664C62.2369 22.328 62.8529 22.16 63.5249 22.16C64.1316 22.16 64.6589 22.2813 65.1069 22.524C65.5643 22.7573 65.9283 23.0513 66.1989 23.406V22.286H67.8089V30H66.1989V28.852C65.9283 29.216 65.5596 29.5193 65.0929 29.762C64.6263 30.0047 64.0943 30.126 63.4969 30.126C62.8343 30.126 62.2276 29.958 61.6769 29.622C61.1263 29.2767 60.6876 28.8007 60.3609 28.194C60.0436 27.578 59.8849 26.8827 59.8849 26.108ZM66.1989 26.136C66.1989 25.604 66.0869 25.142 65.8629 24.75C65.6483 24.358 65.3636 24.0593 65.0089 23.854C64.6543 23.6487 64.2716 23.546 63.8609 23.546C63.4503 23.546 63.0676 23.6487 62.7129 23.854C62.3583 24.05 62.0689 24.344 61.8449 24.736C61.6303 25.1187 61.5229 25.576 61.5229 26.108C61.5229 26.64 61.6303 27.1067 61.8449 27.508C62.0689 27.9093 62.3583 28.2173 62.7129 28.432C63.0769 28.6373 63.4596 28.74 63.8609 28.74C64.2716 28.74 64.6543 28.6373 65.0089 28.432C65.3636 28.2267 65.6483 27.928 65.8629 27.536C66.0869 27.1347 66.1989 26.668 66.1989 26.136ZM79.2432 22.16C79.8499 22.16 80.3912 22.286 80.8672 22.538C81.3526 22.79 81.7306 23.1633 82.0012 23.658C82.2812 24.1527 82.4212 24.75 82.4212 25.45V30H80.8392V25.688C80.8392 24.9973 80.6666 24.47 80.3212 24.106C79.9759 23.7327 79.5046 23.546 78.9072 23.546C78.3099 23.546 77.8339 23.7327 77.4792 24.106C77.1339 24.47 76.9612 24.9973 76.9612 25.688V30H75.3792V25.688C75.3792 24.9973 75.2066 24.47 74.8612 24.106C74.5159 23.7327 74.0446 23.546 73.4472 23.546C72.8499 23.546 72.3739 23.7327 72.0192 24.106C71.6739 24.47 71.5012 24.9973 71.5012 25.688V30H69.9052V22.286H71.5012V23.168C71.7626 22.8507 72.0939 22.6033 72.4952 22.426C72.8966 22.2487 73.3259 22.16 73.7832 22.16C74.3992 22.16 74.9499 22.2907 75.4352 22.552C75.9206 22.8133 76.2939 23.1913 76.5552 23.686C76.7886 23.2193 77.1526 22.8507 77.6472 22.58C78.1419 22.3 78.6739 22.16 79.2432 22.16ZM91.5221 25.954C91.5221 26.2433 91.5034 26.5047 91.4661 26.738H85.5721C85.6188 27.354 85.8474 27.8487 86.2581 28.222C86.6688 28.5953 87.1728 28.782 87.7701 28.782C88.6288 28.782 89.2354 28.4227 89.5901 27.704H91.3121C91.0788 28.4133 90.6541 28.9967 90.0381 29.454C89.4314 29.902 88.6754 30.126 87.7701 30.126C87.0328 30.126 86.3701 29.9627 85.7821 29.636C85.2034 29.3 84.7461 28.8333 84.4101 28.236C84.0834 27.6293 83.9201 26.9293 83.9201 26.136C83.9201 25.3427 84.0788 24.6473 84.3961 24.05C84.7228 23.4433 85.1754 22.9767 85.7541 22.65C86.3421 22.3233 87.0141 22.16 87.7701 22.16C88.4981 22.16 89.1468 22.3187 89.7161 22.636C90.2854 22.9533 90.7288 23.4013 91.0461 23.98C91.3634 24.5493 91.5221 25.2073 91.5221 25.954ZM89.8561 25.45C89.8468 24.862 89.6368 24.3907 89.2261 24.036C88.8154 23.6813 88.3068 23.504 87.7001 23.504C87.1494 23.504 86.6781 23.6813 86.2861 24.036C85.8941 24.3813 85.6608 24.8527 85.5861 25.45H89.8561ZM99.9074 20.27C100.943 20.27 101.849 20.4707 102.623 20.872C103.407 21.264 104.009 21.8333 104.429 22.58C104.859 23.3173 105.073 24.1807 105.073 25.17C105.073 26.1593 104.859 27.018 104.429 27.746C104.009 28.474 103.407 29.034 102.623 29.426C101.849 29.8087 100.943 30 99.9074 30H96.7294V20.27H99.9074ZM99.9074 28.698C101.046 28.698 101.919 28.39 102.525 27.774C103.132 27.158 103.435 26.29 103.435 25.17C103.435 24.0407 103.132 23.1587 102.525 22.524C101.919 21.8893 101.046 21.572 99.9074 21.572H98.3254V28.698H99.9074ZM113.725 25.954C113.725 26.2433 113.707 26.5047 113.669 26.738H107.775C107.822 27.354 108.051 27.8487 108.461 28.222C108.872 28.5953 109.376 28.782 109.973 28.782C110.832 28.782 111.439 28.4227 111.793 27.704H113.515C113.282 28.4133 112.857 28.9967 112.241 29.454C111.635 29.902 110.879 30.126 109.973 30.126C109.236 30.126 108.573 29.9627 107.985 29.636C107.407 29.3 106.949 28.8333 106.613 28.236C106.287 27.6293 106.123 26.9293 106.123 26.136C106.123 25.3427 106.282 24.6473 106.599 24.05C106.926 23.4433 107.379 22.9767 107.957 22.65C108.545 22.3233 109.217 22.16 109.973 22.16C110.701 22.16 111.35 22.3187 111.919 22.636C112.489 22.9533 112.932 23.4013 113.249 23.98C113.567 24.5493 113.725 25.2073 113.725 25.954ZM112.059 25.45C112.05 24.862 111.84 24.3907 111.429 24.036C111.019 23.6813 110.51 23.504 109.903 23.504C109.353 23.504 108.881 23.6813 108.489 24.036C108.097 24.3813 107.864 24.8527 107.789 25.45H112.059ZM118.278 28.572L120.462 22.286H122.156L119.216 30H117.312L114.386 22.286H116.094L118.278 28.572ZM130.432 25.954C130.432 26.2433 130.414 26.5047 130.376 26.738H124.482C124.529 27.354 124.758 27.8487 125.168 28.222C125.579 28.5953 126.083 28.782 126.68 28.782C127.539 28.782 128.146 28.4227 128.5 27.704H130.222C129.989 28.4133 129.564 28.9967 128.948 29.454C128.342 29.902 127.586 30.126 126.68 30.126C125.943 30.126 125.28 29.9627 124.692 29.636C124.114 29.3 123.656 28.8333 123.32 28.236C122.994 27.6293 122.83 26.9293 122.83 26.136C122.83 25.3427 122.989 24.6473 123.306 24.05C123.633 23.4433 124.086 22.9767 124.664 22.65C125.252 22.3233 125.924 22.16 126.68 22.16C127.408 22.16 128.057 22.3187 128.626 22.636C129.196 22.9533 129.639 23.4013 129.956 23.98C130.274 24.5493 130.432 25.2073 130.432 25.954ZM128.766 25.45C128.757 24.862 128.547 24.3907 128.136 24.036C127.726 23.6813 127.217 23.504 126.61 23.504C126.06 23.504 125.588 23.6813 125.196 24.036C124.804 24.3813 124.571 24.8527 124.496 25.45H128.766ZM133.599 19.64V30H132.003V19.64H133.599ZM139.04 30.126C138.312 30.126 137.654 29.9627 137.066 29.636C136.478 29.3 136.016 28.8333 135.68 28.236C135.344 27.6293 135.176 26.9293 135.176 26.136C135.176 25.352 135.349 24.6567 135.694 24.05C136.04 23.4433 136.511 22.9767 137.108 22.65C137.706 22.3233 138.373 22.16 139.11 22.16C139.848 22.16 140.515 22.3233 141.112 22.65C141.71 22.9767 142.181 23.4433 142.526 24.05C142.872 24.6567 143.044 25.352 143.044 26.136C143.044 26.92 142.867 27.6153 142.512 28.222C142.158 28.8287 141.672 29.3 141.056 29.636C140.45 29.9627 139.778 30.126 139.04 30.126ZM139.04 28.74C139.451 28.74 139.834 28.642 140.188 28.446C140.552 28.25 140.846 27.956 141.07 27.564C141.294 27.172 141.406 26.696 141.406 26.136C141.406 25.576 141.299 25.1047 141.084 24.722C140.87 24.33 140.585 24.036 140.23 23.84C139.876 23.644 139.493 23.546 139.082 23.546C138.672 23.546 138.289 23.644 137.934 23.84C137.589 24.036 137.314 24.33 137.108 24.722C136.903 25.1047 136.8 25.576 136.8 26.136C136.8 26.9667 137.01 27.6107 137.43 28.068C137.86 28.516 138.396 28.74 139.04 28.74ZM146.218 23.42C146.489 23.0653 146.857 22.7667 147.324 22.524C147.791 22.2813 148.318 22.16 148.906 22.16C149.578 22.16 150.189 22.328 150.74 22.664C151.3 22.9907 151.739 23.4527 152.056 24.05C152.373 24.6473 152.532 25.3333 152.532 26.108C152.532 26.8827 152.373 27.578 152.056 28.194C151.739 28.8007 151.3 29.2767 150.74 29.622C150.189 29.958 149.578 30.126 148.906 30.126C148.318 30.126 147.795 30.0093 147.338 29.776C146.881 29.5333 146.507 29.2347 146.218 28.88V33.668H144.622V22.286H146.218V23.42ZM150.908 26.108C150.908 25.576 150.796 25.1187 150.572 24.736C150.357 24.344 150.068 24.05 149.704 23.854C149.349 23.6487 148.967 23.546 148.556 23.546C148.155 23.546 147.772 23.6487 147.408 23.854C147.053 24.0593 146.764 24.358 146.54 24.75C146.325 25.142 146.218 25.604 146.218 26.136C146.218 26.668 146.325 27.1347 146.54 27.536C146.764 27.928 147.053 28.2267 147.408 28.432C147.772 28.6373 148.155 28.74 148.556 28.74C148.967 28.74 149.349 28.6373 149.704 28.432C150.068 28.2173 150.357 27.9093 150.572 27.508C150.796 27.1067 150.908 26.64 150.908 26.108ZM163.448 22.16C164.055 22.16 164.596 22.286 165.072 22.538C165.558 22.79 165.936 23.1633 166.206 23.658C166.486 24.1527 166.626 24.75 166.626 25.45V30H165.044V25.688C165.044 24.9973 164.872 24.47 164.526 24.106C164.181 23.7327 163.71 23.546 163.112 23.546C162.515 23.546 162.039 23.7327 161.684 24.106C161.339 24.47 161.166 24.9973 161.166 25.688V30H159.584V25.688C159.584 24.9973 159.412 24.47 159.066 24.106C158.721 23.7327 158.25 23.546 157.652 23.546C157.055 23.546 156.579 23.7327 156.224 24.106C155.879 24.47 155.706 24.9973 155.706 25.688V30H154.11V22.286H155.706V23.168C155.968 22.8507 156.299 22.6033 156.7 22.426C157.102 22.2487 157.531 22.16 157.988 22.16C158.604 22.16 159.155 22.2907 159.64 22.552C160.126 22.8133 160.499 23.1913 160.76 23.686C160.994 23.2193 161.358 22.8507 161.852 22.58C162.347 22.3 162.879 22.16 163.448 22.16ZM175.727 25.954C175.727 26.2433 175.709 26.5047 175.671 26.738H169.777C169.824 27.354 170.053 27.8487 170.463 28.222C170.874 28.5953 171.378 28.782 171.975 28.782C172.834 28.782 173.441 28.4227 173.795 27.704H175.517C175.284 28.4133 174.859 28.9967 174.243 29.454C173.637 29.902 172.881 30.126 171.975 30.126C171.238 30.126 170.575 29.9627 169.987 29.636C169.409 29.3 168.951 28.8333 168.615 28.236C168.289 27.6293 168.125 26.9293 168.125 26.136C168.125 25.3427 168.284 24.6473 168.601 24.05C168.928 23.4433 169.381 22.9767 169.959 22.65C170.547 22.3233 171.219 22.16 171.975 22.16C172.703 22.16 173.352 22.3187 173.921 22.636C174.491 22.9533 174.934 23.4013 175.251 23.98C175.569 24.5493 175.727 25.2073 175.727 25.954ZM174.061 25.45C174.052 24.862 173.842 24.3907 173.431 24.036C173.021 23.6813 172.512 23.504 171.905 23.504C171.355 23.504 170.883 23.6813 170.491 24.036C170.099 24.3813 169.866 24.8527 169.791 25.45H174.061ZM181.19 22.16C181.796 22.16 182.338 22.286 182.814 22.538C183.299 22.79 183.677 23.1633 183.948 23.658C184.218 24.1527 184.354 24.75 184.354 25.45V30H182.772V25.688C182.772 24.9973 182.599 24.47 182.254 24.106C181.908 23.7327 181.437 23.546 180.84 23.546C180.242 23.546 179.766 23.7327 179.412 24.106C179.066 24.47 178.894 24.9973 178.894 25.688V30H177.298V22.286H178.894V23.168C179.155 22.8507 179.486 22.6033 179.888 22.426C180.298 22.2487 180.732 22.16 181.19 22.16ZM188.252 23.588V27.858C188.252 28.1473 188.317 28.3573 188.448 28.488C188.588 28.6093 188.821 28.67 189.148 28.67H190.128V30H188.868C188.149 30 187.598 29.832 187.216 29.496C186.833 29.16 186.642 28.614 186.642 27.858V23.588H185.732V22.286H186.642V20.368H188.252V22.286H190.128V23.588H188.252Z" fill="url(#paint1_linear_183_81)"/>
<rect x="0.5" y="0.5" width="204.539" height="49" rx="24.5" stroke="url(#paint2_linear_183_81)"/>
<defs>
<linearGradient id="paint0_linear_183_81" x1="13" y1="18.5" x2="29.2897" y2="36.7141" gradientUnits="userSpaceOnUse">
<stop stop-color="#D33ED4"/>
<stop offset="0.484375" stop-color="#5A38DD"/>
<stop offset="1" stop-color="#2DCCFD"/>
</linearGradient>
<linearGradient id="paint1_linear_183_81" x1="45" y1="25" x2="46.8938" y2="45.8295" gradientUnits="userSpaceOnUse">
<stop stop-color="#D33ED4"/>
<stop offset="0.484375" stop-color="#5A38DD"/>
<stop offset="1" stop-color="#2DCCFD"/>
</linearGradient>
<linearGradient id="paint2_linear_183_81" x1="43.7065" y1="5.24809" x2="56.4548" y2="67.7178" gradientUnits="userSpaceOnUse">
<stop stop-color="#D33ED4"/>
<stop offset="0.484375" stop-color="#5A38DD"/>
<stop offset="1" stop-color="#2DCCFD"/>
</linearGradient>
</defs>
</svg>
