<svg width="228" height="50" viewBox="0 0 228 50" fill="none" xmlns="http://www.w3.org/2000/svg">
<path d="M25.5223 13H17.7804C16.9593 13.0009 16.1722 13.3275 15.5916 13.908C15.0111 14.4886 14.6845 15.2757 14.6836 16.0968V33.9032C14.6845 34.7243 15.0111 35.5114 15.5916 36.092C16.1722 36.6725 16.9593 36.9991 17.7804 37H25.5223C26.3433 36.9991 27.1305 36.6725 27.711 36.092C28.2916 35.5114 28.6182 34.7243 28.6191 33.9032V16.0968C28.6182 15.2757 28.2916 14.4886 27.711 13.908C27.1305 13.3275 26.3433 13.0009 25.5223 13ZM15.4578 16.871H27.8449V31.5806H15.4578V16.871ZM17.7804 13.7742H25.5223C26.1381 13.7748 26.7285 14.0197 27.1639 14.4551C27.5994 14.8906 27.8443 15.481 27.8449 16.0968H15.4578C15.4584 15.481 15.7033 14.8906 16.1387 14.4551C16.5742 14.0197 17.1646 13.7748 17.7804 13.7742ZM25.5223 36.2258H17.7804C17.1646 36.2252 16.5742 35.9803 16.1387 35.5449C15.7033 35.1094 15.4584 34.519 15.4578 33.9032V32.3548H27.8449V33.9032C27.8443 34.519 27.5994 35.1094 27.1639 35.5449C26.7285 35.9803 26.1381 36.2252 25.5223 36.2258Z" fill="#ADADAD"/>
<path d="M21.6513 33.1289C21.4216 33.1289 21.1971 33.197 21.0061 33.3246C20.8151 33.4522 20.6663 33.6336 20.5784 33.8458C20.4905 34.058 20.4675 34.2915 20.5123 34.5168C20.5571 34.742 20.6677 34.9489 20.8301 35.1114C20.9925 35.2738 21.1995 35.3844 21.4247 35.4292C21.65 35.474 21.8835 35.451 22.0957 35.3631C22.3079 35.2752 22.4893 35.1263 22.6169 34.9354C22.7445 34.7444 22.8126 34.5199 22.8126 34.2902C22.8126 33.9822 22.6902 33.6868 22.4724 33.469C22.2547 33.2513 21.9593 33.1289 21.6513 33.1289ZM21.6513 34.6773C21.5747 34.6773 21.4999 34.6546 21.4362 34.6121C21.3726 34.5695 21.3229 34.5091 21.2937 34.4383C21.2644 34.3676 21.2567 34.2898 21.2716 34.2147C21.2866 34.1396 21.3234 34.0706 21.3776 34.0165C21.4317 33.9623 21.5007 33.9255 21.5758 33.9105C21.6509 33.8956 21.7287 33.9033 21.7994 33.9326C21.8701 33.9619 21.9306 34.0115 21.9731 34.0751C22.0157 34.1388 22.0384 34.2136 22.0384 34.2902C22.0384 34.3929 21.9976 34.4913 21.925 34.5639C21.8524 34.6365 21.7539 34.6773 21.6513 34.6773Z" fill="#ADADAD"/>
<path d="M22.8127 14.5488H20.4901C20.3875 14.5488 20.289 14.5896 20.2164 14.6622C20.1438 14.7348 20.103 14.8333 20.103 14.9359C20.103 15.0386 20.1438 15.137 20.2164 15.2096C20.289 15.2822 20.3875 15.323 20.4901 15.323H22.8127C22.9154 15.323 23.0138 15.2822 23.0864 15.2096C23.159 15.137 23.1998 15.0386 23.1998 14.9359C23.1998 14.8333 23.159 14.7348 23.0864 14.6622C23.0138 14.5896 22.9154 14.5488 22.8127 14.5488Z" fill="#ADADAD"/>
<path d="M49.3011 20.34V30H48.3211V22.286L44.8771 30H44.1631L40.7191 22.314V30H39.7391V20.34H40.7751L44.5131 28.712L48.2511 20.34H49.3011ZM54.8703 30.112C54.1516 30.112 53.503 29.9533 52.9243 29.636C52.355 29.3093 51.9023 28.852 51.5663 28.264C51.2396 27.6667 51.0763 26.9713 51.0763 26.178C51.0763 25.3847 51.2443 24.694 51.5803 24.106C51.9163 23.5087 52.3736 23.0513 52.9523 22.734C53.531 22.4073 54.1796 22.244 54.8983 22.244C55.617 22.244 56.2656 22.4073 56.8443 22.734C57.4323 23.0513 57.8896 23.5087 58.2163 24.106C58.5523 24.694 58.7203 25.3847 58.7203 26.178C58.7203 26.962 58.5523 27.6527 58.2163 28.25C57.8803 28.8473 57.4183 29.3093 56.8303 29.636C56.2423 29.9533 55.589 30.112 54.8703 30.112ZM54.8703 29.258C55.3743 29.258 55.841 29.146 56.2703 28.922C56.6996 28.6887 57.045 28.3433 57.3063 27.886C57.577 27.4193 57.7123 26.85 57.7123 26.178C57.7123 25.506 57.5816 24.9413 57.3203 24.484C57.059 24.0173 56.7136 23.672 56.2843 23.448C55.855 23.2147 55.3883 23.098 54.8843 23.098C54.3803 23.098 53.9136 23.2147 53.4843 23.448C53.055 23.672 52.7096 24.0173 52.4483 24.484C52.1963 24.9413 52.0703 25.506 52.0703 26.178C52.0703 26.85 52.1963 27.4193 52.4483 27.886C52.7096 28.3433 53.0503 28.6887 53.4703 28.922C53.8996 29.146 54.3663 29.258 54.8703 29.258ZM61.4727 24.05C61.7247 23.518 62.1121 23.084 62.6347 22.748C63.1667 22.412 63.7921 22.244 64.5107 22.244C65.2107 22.244 65.8361 22.4073 66.3867 22.734C66.9374 23.0513 67.3667 23.5087 67.6747 24.106C67.9921 24.694 68.1507 25.38 68.1507 26.164C68.1507 26.948 67.9921 27.6387 67.6747 28.236C67.3667 28.8333 66.9327 29.2953 66.3727 29.622C65.8221 29.9487 65.2014 30.112 64.5107 30.112C63.7827 30.112 63.1527 29.9487 62.6207 29.622C62.0981 29.286 61.7154 28.852 61.4727 28.32V30H60.5067V19.64H61.4727V24.05ZM67.1567 26.164C67.1567 25.5293 67.0307 24.9833 66.7787 24.526C66.5361 24.0593 66.2001 23.7047 65.7707 23.462C65.3414 23.2193 64.8561 23.098 64.3147 23.098C63.7921 23.098 63.3114 23.224 62.8727 23.476C62.4434 23.728 62.1027 24.0873 61.8507 24.554C61.5987 25.0207 61.4727 25.562 61.4727 26.178C61.4727 26.794 61.5987 27.3353 61.8507 27.802C62.1027 28.2687 62.4434 28.628 62.8727 28.88C63.3114 29.132 63.7921 29.258 64.3147 29.258C64.8561 29.258 65.3414 29.1367 65.7707 28.894C66.2001 28.642 66.5361 28.2827 66.7787 27.816C67.0307 27.34 67.1567 26.7893 67.1567 26.164ZM70.444 20.914C70.248 20.914 70.08 20.844 69.94 20.704C69.8 20.564 69.73 20.3913 69.73 20.186C69.73 19.9807 69.8 19.8127 69.94 19.682C70.08 19.542 70.248 19.472 70.444 19.472C70.64 19.472 70.808 19.542 70.948 19.682C71.088 19.8127 71.158 19.9807 71.158 20.186C71.158 20.3913 71.088 20.564 70.948 20.704C70.808 20.844 70.64 20.914 70.444 20.914ZM70.934 22.356V30H69.954V22.356H70.934ZM74.1332 19.64V30H73.1532V19.64H74.1332ZM83.2684 25.786C83.2684 26.122 83.2591 26.3787 83.2404 26.556H76.8984C76.9264 27.1347 77.0664 27.6293 77.3184 28.04C77.5704 28.4507 77.9018 28.7633 78.3124 28.978C78.7231 29.1833 79.1711 29.286 79.6564 29.286C80.2911 29.286 80.8231 29.132 81.2524 28.824C81.6911 28.516 81.9804 28.1007 82.1204 27.578H83.1564C82.9698 28.3247 82.5684 28.936 81.9524 29.412C81.3458 29.8787 80.5804 30.112 79.6564 30.112C78.9378 30.112 78.2938 29.9533 77.7244 29.636C77.1551 29.3093 76.7071 28.852 76.3804 28.264C76.0631 27.6667 75.9044 26.9713 75.9044 26.178C75.9044 25.3847 76.0631 24.6893 76.3804 24.092C76.6978 23.4947 77.1411 23.0373 77.7104 22.72C78.2798 22.4027 78.9284 22.244 79.6564 22.244C80.3844 22.244 81.0191 22.4027 81.5604 22.72C82.1111 23.0373 82.5311 23.4667 82.8204 24.008C83.1191 24.54 83.2684 25.1327 83.2684 25.786ZM82.2744 25.758C82.2838 25.1887 82.1671 24.7033 81.9244 24.302C81.6911 23.9007 81.3691 23.5973 80.9584 23.392C80.5478 23.1867 80.0998 23.084 79.6144 23.084C78.8864 23.084 78.2658 23.3173 77.7524 23.784C77.2391 24.2507 76.9544 24.9087 76.8984 25.758H82.2744ZM94.5732 27.676H90.1212L89.2672 30H88.2312L91.8012 20.34H92.9072L96.4632 30H95.4272L94.5732 27.676ZM94.2792 26.864L92.3472 21.572L90.4152 26.864H94.2792ZM99.002 24.036C99.2447 23.5227 99.6273 23.098 100.15 22.762C100.682 22.4167 101.312 22.244 102.04 22.244C102.731 22.244 103.351 22.4073 103.902 22.734C104.462 23.0513 104.896 23.5087 105.204 24.106C105.521 24.694 105.68 25.38 105.68 26.164C105.68 26.948 105.521 27.6387 105.204 28.236C104.896 28.8333 104.462 29.2953 103.902 29.622C103.351 29.9487 102.731 30.112 102.04 30.112C101.321 30.112 100.696 29.944 100.164 29.608C99.632 29.2627 99.2447 28.8333 99.002 28.32V33.612H98.036V22.356H99.002V24.036ZM104.686 26.164C104.686 25.5293 104.56 24.9833 104.308 24.526C104.065 24.0593 103.729 23.7047 103.3 23.462C102.871 23.2193 102.385 23.098 101.844 23.098C101.321 23.098 100.841 23.224 100.402 23.476C99.9727 23.728 99.632 24.0873 99.38 24.554C99.128 25.0207 99.002 25.562 99.002 26.178C99.002 26.794 99.128 27.3353 99.38 27.802C99.632 28.2687 99.9727 28.628 100.402 28.88C100.841 29.132 101.321 29.258 101.844 29.258C102.385 29.258 102.871 29.1367 103.3 28.894C103.729 28.642 104.065 28.2827 104.308 27.816C104.56 27.34 104.686 26.7893 104.686 26.164ZM108.449 24.036C108.692 23.5227 109.075 23.098 109.597 22.762C110.129 22.4167 110.759 22.244 111.487 22.244C112.178 22.244 112.799 22.4073 113.349 22.734C113.909 23.0513 114.343 23.5087 114.651 24.106C114.969 24.694 115.127 25.38 115.127 26.164C115.127 26.948 114.969 27.6387 114.651 28.236C114.343 28.8333 113.909 29.2953 113.349 29.622C112.799 29.9487 112.178 30.112 111.487 30.112C110.769 30.112 110.143 29.944 109.611 29.608C109.079 29.2627 108.692 28.8333 108.449 28.32V33.612H107.483V22.356H108.449V24.036ZM114.133 26.164C114.133 25.5293 114.007 24.9833 113.755 24.526C113.513 24.0593 113.177 23.7047 112.747 23.462C112.318 23.2193 111.833 23.098 111.291 23.098C110.769 23.098 110.288 23.224 109.849 23.476C109.42 23.728 109.079 24.0873 108.827 24.554C108.575 25.0207 108.449 25.562 108.449 26.178C108.449 26.794 108.575 27.3353 108.827 27.802C109.079 28.2687 109.42 28.628 109.849 28.88C110.288 29.132 110.769 29.258 111.291 29.258C111.833 29.258 112.318 29.1367 112.747 28.894C113.177 28.642 113.513 28.2827 113.755 27.816C114.007 27.34 114.133 26.7893 114.133 26.164ZM123.67 20.214C124.753 20.214 125.682 20.41 126.456 20.802C127.231 21.194 127.824 21.7587 128.234 22.496C128.645 23.2333 128.85 24.1107 128.85 25.128C128.85 26.136 128.645 27.0087 128.234 27.746C127.824 28.474 127.231 29.034 126.456 29.426C125.682 29.8087 124.753 30 123.67 30H120.772V20.214H123.67ZM123.67 29.188C125.033 29.188 126.069 28.8333 126.778 28.124C127.497 27.4053 127.856 26.4067 127.856 25.128C127.856 23.84 127.497 22.8367 126.778 22.118C126.069 21.39 125.033 21.026 123.67 21.026H121.752V29.188H123.67ZM137.573 25.786C137.573 26.122 137.564 26.3787 137.545 26.556H131.203C131.231 27.1347 131.371 27.6293 131.623 28.04C131.875 28.4507 132.206 28.7633 132.617 28.978C133.028 29.1833 133.476 29.286 133.961 29.286C134.596 29.286 135.128 29.132 135.557 28.824C135.996 28.516 136.285 28.1007 136.425 27.578H137.461C137.274 28.3247 136.873 28.936 136.257 29.412C135.65 29.8787 134.885 30.112 133.961 30.112C133.242 30.112 132.598 29.9533 132.029 29.636C131.46 29.3093 131.012 28.852 130.685 28.264C130.368 27.6667 130.209 26.9713 130.209 26.178C130.209 25.3847 130.368 24.6893 130.685 24.092C131.002 23.4947 131.446 23.0373 132.015 22.72C132.584 22.4027 133.233 22.244 133.961 22.244C134.689 22.244 135.324 22.4027 135.865 22.72C136.416 23.0373 136.836 23.4667 137.125 24.008C137.424 24.54 137.573 25.1327 137.573 25.786ZM136.579 25.758C136.588 25.1887 136.472 24.7033 136.229 24.302C135.996 23.9007 135.674 23.5973 135.263 23.392C134.852 23.1867 134.404 23.084 133.919 23.084C133.191 23.084 132.57 23.3173 132.057 23.784C131.544 24.2507 131.259 24.9087 131.203 25.758H136.579ZM142.082 29.048L144.658 22.356H145.694L142.628 30H141.522L138.456 22.356H139.506L142.082 29.048ZM153.938 25.786C153.938 26.122 153.929 26.3787 153.91 26.556H147.568C147.596 27.1347 147.736 27.6293 147.988 28.04C148.24 28.4507 148.572 28.7633 148.982 28.978C149.393 29.1833 149.841 29.286 150.326 29.286C150.961 29.286 151.493 29.132 151.922 28.824C152.361 28.516 152.65 28.1007 152.79 27.578H153.826C153.64 28.3247 153.238 28.936 152.622 29.412C152.016 29.8787 151.25 30.112 150.326 30.112C149.608 30.112 148.964 29.9533 148.394 29.636C147.825 29.3093 147.377 28.852 147.05 28.264C146.733 27.6667 146.574 26.9713 146.574 26.178C146.574 25.3847 146.733 24.6893 147.05 24.092C147.368 23.4947 147.811 23.0373 148.38 22.72C148.95 22.4027 149.598 22.244 150.326 22.244C151.054 22.244 151.689 22.4027 152.23 22.72C152.781 23.0373 153.201 23.4667 153.49 24.008C153.789 24.54 153.938 25.1327 153.938 25.786ZM152.944 25.758C152.954 25.1887 152.837 24.7033 152.594 24.302C152.361 23.9007 152.039 23.5973 151.628 23.392C151.218 23.1867 150.77 23.084 150.284 23.084C149.556 23.084 148.936 23.3173 148.422 23.784C147.909 24.2507 147.624 24.9087 147.568 25.758H152.944ZM156.711 19.64V30H155.731V19.64H156.711ZM162.277 30.112C161.558 30.112 160.909 29.9533 160.331 29.636C159.761 29.3093 159.309 28.852 158.973 28.264C158.646 27.6667 158.483 26.9713 158.483 26.178C158.483 25.3847 158.651 24.694 158.987 24.106C159.323 23.5087 159.78 23.0513 160.359 22.734C160.937 22.4073 161.586 22.244 162.305 22.244C163.023 22.244 163.672 22.4073 164.251 22.734C164.839 23.0513 165.296 23.5087 165.623 24.106C165.959 24.694 166.127 25.3847 166.127 26.178C166.127 26.962 165.959 27.6527 165.623 28.25C165.287 28.8473 164.825 29.3093 164.237 29.636C163.649 29.9533 162.995 30.112 162.277 30.112ZM162.277 29.258C162.781 29.258 163.247 29.146 163.677 28.922C164.106 28.6887 164.451 28.3433 164.713 27.886C164.983 27.4193 165.119 26.85 165.119 26.178C165.119 25.506 164.988 24.9413 164.727 24.484C164.465 24.0173 164.12 23.672 163.691 23.448C163.261 23.2147 162.795 23.098 162.291 23.098C161.787 23.098 161.32 23.2147 160.891 23.448C160.461 23.672 160.116 24.0173 159.855 24.484C159.603 24.9413 159.477 25.506 159.477 26.178C159.477 26.85 159.603 27.4193 159.855 27.886C160.116 28.3433 160.457 28.6887 160.877 28.922C161.306 29.146 161.773 29.258 162.277 29.258ZM168.879 24.036C169.122 23.5227 169.504 23.098 170.027 22.762C170.559 22.4167 171.189 22.244 171.917 22.244C172.608 22.244 173.228 22.4073 173.779 22.734C174.339 23.0513 174.773 23.5087 175.081 24.106C175.398 24.694 175.557 25.38 175.557 26.164C175.557 26.948 175.398 27.6387 175.081 28.236C174.773 28.8333 174.339 29.2953 173.779 29.622C173.228 29.9487 172.608 30.112 171.917 30.112C171.198 30.112 170.573 29.944 170.041 29.608C169.509 29.2627 169.122 28.8333 168.879 28.32V33.612H167.913V22.356H168.879V24.036ZM174.563 26.164C174.563 25.5293 174.437 24.9833 174.185 24.526C173.942 24.0593 173.606 23.7047 173.177 23.462C172.748 23.2193 172.262 23.098 171.721 23.098C171.198 23.098 170.718 23.224 170.279 23.476C169.85 23.728 169.509 24.0873 169.257 24.554C169.005 25.0207 168.879 25.562 168.879 26.178C168.879 26.794 169.005 27.3353 169.257 27.802C169.509 28.2687 169.85 28.628 170.279 28.88C170.718 29.132 171.198 29.258 171.721 29.258C172.262 29.258 172.748 29.1367 173.177 28.894C173.606 28.642 173.942 28.2827 174.185 27.816C174.437 27.34 174.563 26.7893 174.563 26.164ZM186.46 22.216C187.356 22.216 188.084 22.5007 188.644 23.07C189.214 23.63 189.498 24.4467 189.498 25.52V30H188.532V25.632C188.532 24.8013 188.332 24.1667 187.93 23.728C187.529 23.2893 186.983 23.07 186.292 23.07C185.574 23.07 185 23.308 184.57 23.784C184.141 24.26 183.926 24.9507 183.926 25.856V30H182.96V25.632C182.96 24.8013 182.76 24.1667 182.358 23.728C181.957 23.2893 181.406 23.07 180.706 23.07C179.988 23.07 179.414 23.308 178.984 23.784C178.555 24.26 178.34 24.9507 178.34 25.856V30H177.36V22.356H178.34V23.672C178.583 23.196 178.928 22.8367 179.376 22.594C179.824 22.342 180.324 22.216 180.874 22.216C181.537 22.216 182.116 22.3747 182.61 22.692C183.114 23.0093 183.478 23.476 183.702 24.092C183.908 23.4853 184.258 23.0233 184.752 22.706C185.256 22.3793 185.826 22.216 186.46 22.216ZM198.591 25.786C198.591 26.122 198.581 26.3787 198.563 26.556H192.221C192.249 27.1347 192.389 27.6293 192.641 28.04C192.893 28.4507 193.224 28.7633 193.635 28.978C194.045 29.1833 194.493 29.286 194.979 29.286C195.613 29.286 196.145 29.132 196.575 28.824C197.013 28.516 197.303 28.1007 197.443 27.578H198.479C198.292 28.3247 197.891 28.936 197.275 29.412C196.668 29.8787 195.903 30.112 194.979 30.112C194.26 30.112 193.616 29.9533 193.047 29.636C192.477 29.3093 192.029 28.852 191.703 28.264C191.385 27.6667 191.227 26.9713 191.227 26.178C191.227 25.3847 191.385 24.6893 191.703 24.092C192.02 23.4947 192.463 23.0373 193.033 22.72C193.602 22.4027 194.251 22.244 194.979 22.244C195.707 22.244 196.341 22.4027 196.883 22.72C197.433 23.0373 197.853 23.4667 198.143 24.008C198.441 24.54 198.591 25.1327 198.591 25.786ZM197.597 25.758C197.606 25.1887 197.489 24.7033 197.247 24.302C197.013 23.9007 196.691 23.5973 196.281 23.392C195.87 23.1867 195.422 23.084 194.937 23.084C194.209 23.084 193.588 23.3173 193.075 23.784C192.561 24.2507 192.277 24.9087 192.221 25.758H197.597ZM203.968 22.216C204.882 22.216 205.629 22.5007 206.208 23.07C206.786 23.63 207.076 24.4467 207.076 25.52V30H206.11V25.632C206.11 24.8013 205.9 24.1667 205.48 23.728C205.069 23.2893 204.504 23.07 203.786 23.07C203.048 23.07 202.46 23.3033 202.022 23.77C201.583 24.2367 201.364 24.9227 201.364 25.828V30H200.384V22.356H201.364V23.658C201.606 23.1913 201.956 22.8367 202.414 22.594C202.871 22.342 203.389 22.216 203.968 22.216ZM210.517 23.182V27.928C210.517 28.3947 210.606 28.7167 210.783 28.894C210.96 29.0713 211.273 29.16 211.721 29.16H212.617V30H211.567C210.876 30 210.363 29.8413 210.027 29.524C209.691 29.1973 209.523 28.6653 209.523 27.928V23.182H208.459V22.356H209.523V20.438H210.517V22.356H212.617V23.182H210.517Z" fill="#ADADAD"/>
<rect x="1.18359" y="0.5" width="225.935" height="49" rx="24.5" stroke="#ADADAD"/>
</svg>
