<svg width="191" height="50" viewBox="0 0 191 50" fill="none" xmlns="http://www.w3.org/2000/svg">
<path d="M26.0003 36.9997C25.931 37.0006 25.8613 36.9992 25.7917 36.9979C25.771 36.9989 25.7493 36.9984 25.7297 36.9993C25.6884 36.9993 25.6474 36.9972 25.6067 36.9933C21.6203 36.8641 18.1201 34.7816 16.0329 31.6751C16.0095 31.6493 15.9898 31.62 15.9749 31.588C14.7243 29.6912 13.997 27.42 14.0005 24.9828C14.0051 21.7775 15.2576 18.7659 17.5273 16.5028C19.7078 14.3286 22.5768 13.0952 25.6408 13.0056C25.6817 13.002 25.7285 13.0045 25.7642 13C25.7853 13 25.8063 13.0006 25.8273 13.0017C25.8908 13.0007 25.9538 13.0006 26.0173 13.0004C29.2226 13.0049 32.2342 14.2574 34.4975 16.5271C36.7607 18.7967 38.0046 21.812 38 25.0172C37.9965 27.452 37.2637 29.7191 36.01 31.6115C35.9939 31.6473 35.9719 31.6798 35.9452 31.708C33.7862 34.8991 30.1331 36.9995 26.0003 36.9997ZM25.5933 36.2857C25.6607 36.2913 25.7283 36.2953 25.7963 36.2981C26.4595 36.2267 27.1698 35.0602 27.7093 33.1467C27.828 32.7257 27.9363 32.2776 28.0341 31.8064L23.4405 31.7998C23.5368 32.2715 23.644 32.7198 23.7615 33.1411C24.2761 34.9867 24.9515 36.139 25.5933 36.2857ZM28.7458 31.8074C28.6374 32.3468 28.5156 32.858 28.3809 33.3359C28.0239 34.602 27.6 35.5528 27.1235 36.1679C29.0461 35.7087 30.7258 34.0989 31.8542 31.8118L28.7458 31.8074ZM20.1268 31.795C21.1194 33.8213 22.5451 35.3187 24.191 35.9589C23.7763 35.3442 23.4055 34.4625 23.0893 33.3284C22.956 32.8502 22.8356 32.3383 22.7289 31.7987L20.1268 31.795ZM32.6143 31.813C31.852 33.453 30.8232 34.7978 29.6224 35.7067C31.7852 34.973 33.6563 33.6012 35.01 31.8163L32.6143 31.813ZM16.9711 31.7905C18.3198 33.5791 20.1866 34.9564 22.3471 35.6963C21.149 34.7838 20.1242 33.4363 19.3665 31.7938L16.9711 31.7905ZM32.9153 31.1157L35.4987 31.1193C36.5776 29.4504 37.2289 27.4803 37.2964 25.365L34.0416 25.3604C33.9982 27.4573 33.5927 29.4206 32.9153 31.1157ZM28.8757 31.1098L32.1723 31.1145C32.8746 29.4451 33.2989 27.4747 33.3439 25.3594L29.3606 25.3537C29.3408 27.4128 29.1731 29.3834 28.8757 31.1098ZM23.3087 31.102L28.1678 31.109C28.4715 29.3947 28.6428 27.4213 28.6628 25.3527L22.8302 25.3443C22.8443 27.4129 23.0101 29.3867 23.3087 31.102ZM19.8109 31.097L22.6009 31.1009C22.3084 29.3733 22.1464 27.4026 22.1326 25.3434L18.6556 25.3383C18.6946 27.4538 19.1133 29.4254 19.8109 31.097ZM16.4845 31.0921L19.0677 31.0957C18.3952 29.3987 17.9953 27.4344 17.9579 25.3372L14.7031 25.3328C14.7645 27.4482 15.4102 29.4201 16.4845 31.0921ZM34.0427 24.6627L37.2975 24.6673C37.2402 22.6672 36.6654 20.7553 35.6367 19.0861L33.012 19.0825C33.6518 20.771 34.0078 22.6768 34.0427 24.6627ZM29.3616 24.656L33.3448 24.6617C33.3084 22.6612 32.934 20.7506 32.2631 19.0814L28.9227 19.0767C29.1967 20.7608 29.3482 22.6674 29.3616 24.656ZM22.8313 24.6466L28.6639 24.655C28.6504 22.6577 28.4953 20.7488 28.2158 19.0757L23.2954 19.0686C23.011 20.7408 22.8506 22.6494 22.8313 24.6466ZM18.6567 24.6406L22.1336 24.6456C22.1526 22.657 22.3097 20.7509 22.5884 19.0674L19.7544 19.0634C19.0786 20.7306 18.6988 22.6403 18.6567 24.6406ZM14.7039 24.635L17.9588 24.6396C17.9992 22.654 18.3608 20.7491 19.0055 19.0623L16.3808 19.0586C15.3474 20.7248 14.7671 22.635 14.7039 24.635ZM32.7257 18.3844L35.1693 18.3877C34.8205 17.9063 34.4313 17.4487 34.0035 17.0197C32.7656 15.7783 31.2901 14.8598 29.6789 14.3072C30.4357 14.8851 31.1328 15.6471 31.7457 16.5774C32.1142 17.1373 32.4417 17.7425 32.7257 18.3844ZM28.7998 18.3787L31.9583 18.3833C31.7214 17.8817 31.4557 17.4062 31.1628 16.9613C30.0541 15.2777 28.6607 14.1991 27.1554 13.8353C27.6302 14.4519 28.0514 15.4039 28.4048 16.6709C28.5527 17.2015 28.6847 17.773 28.7998 18.3787ZM23.4239 18.371L28.0893 18.3777C27.9839 17.8404 27.8649 17.3324 27.7327 16.8582C27.1988 14.944 26.4921 13.7757 25.8292 13.7015C25.7611 13.704 25.693 13.7079 25.6252 13.7133C24.983 13.8586 24.3047 15.0089 23.7849 16.8526C23.6514 17.3262 23.5308 17.8342 23.4239 18.371ZM20.0611 18.3661L22.7132 18.3699C22.8302 17.7645 22.9637 17.1934 23.1132 16.6634C23.4327 15.5299 23.806 14.6491 24.2227 14.0357C22.9676 14.5193 21.8111 15.5123 20.8607 16.9465C20.5665 17.3906 20.2994 17.8654 20.0611 18.3661ZM16.8502 18.3616L19.2939 18.365C19.5797 17.7239 19.9089 17.1198 20.2792 16.5611C20.8947 15.6323 21.594 14.8724 22.3524 14.2966C20.7398 14.8447 19.2615 15.7589 18.0202 16.9968C17.5909 17.4247 17.2003 17.8811 16.8502 18.3616Z" fill="#ADADAD"/>
<path d="M60.992 20.214L58.22 30H57.128L54.664 21.656L52.144 30L51.08 30.014L48.364 20.214H49.414L51.654 28.796L54.16 20.214H55.252L57.688 28.796L59.942 20.214H60.992ZM69.4071 25.786C69.4071 26.122 69.3978 26.3787 69.3791 26.556H63.0371C63.0651 27.1347 63.2051 27.6293 63.4571 28.04C63.7091 28.4507 64.0404 28.7633 64.4511 28.978C64.8618 29.1833 65.3098 29.286 65.7951 29.286C66.4298 29.286 66.9618 29.132 67.3911 28.824C67.8298 28.516 68.1191 28.1007 68.2591 27.578H69.2951C69.1084 28.3247 68.7071 28.936 68.0911 29.412C67.4844 29.8787 66.7191 30.112 65.7951 30.112C65.0764 30.112 64.4324 29.9533 63.8631 29.636C63.2938 29.3093 62.8458 28.852 62.5191 28.264C62.2018 27.6667 62.0431 26.9713 62.0431 26.178C62.0431 25.3847 62.2018 24.6893 62.5191 24.092C62.8364 23.4947 63.2798 23.0373 63.8491 22.72C64.4184 22.4027 65.0671 22.244 65.7951 22.244C66.5231 22.244 67.1578 22.4027 67.6991 22.72C68.2498 23.0373 68.6698 23.4667 68.9591 24.008C69.2578 24.54 69.4071 25.1327 69.4071 25.786ZM68.4131 25.758C68.4224 25.1887 68.3058 24.7033 68.0631 24.302C67.8298 23.9007 67.5078 23.5973 67.0971 23.392C66.6864 23.1867 66.2384 23.084 65.7531 23.084C65.0251 23.084 64.4044 23.3173 63.8911 23.784C63.3778 24.2507 63.0931 24.9087 63.0371 25.758H68.4131ZM72.1661 24.05C72.4181 23.518 72.8054 23.084 73.3281 22.748C73.8601 22.412 74.4854 22.244 75.2041 22.244C75.9041 22.244 76.5294 22.4073 77.0801 22.734C77.6307 23.0513 78.0601 23.5087 78.3681 24.106C78.6854 24.694 78.8441 25.38 78.8441 26.164C78.8441 26.948 78.6854 27.6387 78.3681 28.236C78.0601 28.8333 77.6261 29.2953 77.0661 29.622C76.5154 29.9487 75.8947 30.112 75.2041 30.112C74.4761 30.112 73.8461 29.9487 73.3141 29.622C72.7914 29.286 72.4087 28.852 72.1661 28.32V30H71.2001V19.64H72.1661V24.05ZM77.8501 26.164C77.8501 25.5293 77.7241 24.9833 77.4721 24.526C77.2294 24.0593 76.8934 23.7047 76.4641 23.462C76.0347 23.2193 75.5494 23.098 75.0081 23.098C74.4854 23.098 74.0047 23.224 73.5661 23.476C73.1367 23.728 72.7961 24.0873 72.5441 24.554C72.2921 25.0207 72.1661 25.562 72.1661 26.178C72.1661 26.794 72.2921 27.3353 72.5441 27.802C72.7961 28.2687 73.1367 28.628 73.5661 28.88C74.0047 29.132 74.4854 29.258 75.0081 29.258C75.5494 29.258 76.0347 29.1367 76.4641 28.894C76.8934 28.642 77.2294 28.2827 77.4721 27.816C77.7241 27.34 77.8501 26.7893 77.8501 26.164ZM87.3871 20.214C88.4698 20.214 89.3985 20.41 90.1731 20.802C90.9478 21.194 91.5405 21.7587 91.9511 22.496C92.3618 23.2333 92.5671 24.1107 92.5671 25.128C92.5671 26.136 92.3618 27.0087 91.9511 27.746C91.5405 28.474 90.9478 29.034 90.1731 29.426C89.3985 29.8087 88.4698 30 87.3871 30H84.4891V20.214H87.3871ZM87.3871 29.188C88.7498 29.188 89.7858 28.8333 90.4951 28.124C91.2138 27.4053 91.5731 26.4067 91.5731 25.128C91.5731 23.84 91.2138 22.8367 90.4951 22.118C89.7858 21.39 88.7498 21.026 87.3871 21.026H85.4691V29.188H87.3871ZM101.29 25.786C101.29 26.122 101.281 26.3787 101.262 26.556H94.9199C94.9479 27.1347 95.0879 27.6293 95.3399 28.04C95.5919 28.4507 95.9232 28.7633 96.3339 28.978C96.7446 29.1833 97.1926 29.286 97.6779 29.286C98.3126 29.286 98.8446 29.132 99.2739 28.824C99.7126 28.516 100.002 28.1007 100.142 27.578H101.178C100.991 28.3247 100.59 28.936 99.9739 29.412C99.3672 29.8787 98.6019 30.112 97.6779 30.112C96.9592 30.112 96.3152 29.9533 95.7459 29.636C95.1766 29.3093 94.7286 28.852 94.4019 28.264C94.0846 27.6667 93.9259 26.9713 93.9259 26.178C93.9259 25.3847 94.0846 24.6893 94.4019 24.092C94.7192 23.4947 95.1626 23.0373 95.7319 22.72C96.3012 22.4027 96.9499 22.244 97.6779 22.244C98.4059 22.244 99.0406 22.4027 99.5819 22.72C100.133 23.0373 100.553 23.4667 100.842 24.008C101.141 24.54 101.29 25.1327 101.29 25.786ZM100.296 25.758C100.305 25.1887 100.189 24.7033 99.9459 24.302C99.7126 23.9007 99.3906 23.5973 98.9799 23.392C98.5692 23.1867 98.1212 23.084 97.6359 23.084C96.9079 23.084 96.2872 23.3173 95.7739 23.784C95.2606 24.2507 94.9759 24.9087 94.9199 25.758H100.296ZM105.799 29.048L108.375 22.356H109.411L106.345 30H105.239L102.173 22.356H103.223L105.799 29.048ZM117.655 25.786C117.655 26.122 117.646 26.3787 117.627 26.556H111.285C111.313 27.1347 111.453 27.6293 111.705 28.04C111.957 28.4507 112.288 28.7633 112.699 28.978C113.11 29.1833 113.558 29.286 114.043 29.286C114.678 29.286 115.21 29.132 115.639 28.824C116.078 28.516 116.367 28.1007 116.507 27.578H117.543C117.356 28.3247 116.955 28.936 116.339 29.412C115.732 29.8787 114.967 30.112 114.043 30.112C113.324 30.112 112.68 29.9533 112.111 29.636C111.542 29.3093 111.094 28.852 110.767 28.264C110.45 27.6667 110.291 26.9713 110.291 26.178C110.291 25.3847 110.45 24.6893 110.767 24.092C111.084 23.4947 111.528 23.0373 112.097 22.72C112.666 22.4027 113.315 22.244 114.043 22.244C114.771 22.244 115.406 22.4027 115.947 22.72C116.498 23.0373 116.918 23.4667 117.207 24.008C117.506 24.54 117.655 25.1327 117.655 25.786ZM116.661 25.758C116.67 25.1887 116.554 24.7033 116.311 24.302C116.078 23.9007 115.756 23.5973 115.345 23.392C114.934 23.1867 114.486 23.084 114.001 23.084C113.273 23.084 112.652 23.3173 112.139 23.784C111.626 24.2507 111.341 24.9087 111.285 25.758H116.661ZM120.428 19.64V30H119.448V19.64H120.428ZM125.993 30.112C125.275 30.112 124.626 29.9533 124.047 29.636C123.478 29.3093 123.025 28.852 122.689 28.264C122.363 27.6667 122.199 26.9713 122.199 26.178C122.199 25.3847 122.367 24.694 122.703 24.106C123.039 23.5087 123.497 23.0513 124.075 22.734C124.654 22.4073 125.303 22.244 126.021 22.244C126.74 22.244 127.389 22.4073 127.967 22.734C128.555 23.0513 129.013 23.5087 129.339 24.106C129.675 24.694 129.843 25.3847 129.843 26.178C129.843 26.962 129.675 27.6527 129.339 28.25C129.003 28.8473 128.541 29.3093 127.953 29.636C127.365 29.9533 126.712 30.112 125.993 30.112ZM125.993 29.258C126.497 29.258 126.964 29.146 127.393 28.922C127.823 28.6887 128.168 28.3433 128.429 27.886C128.7 27.4193 128.835 26.85 128.835 26.178C128.835 25.506 128.705 24.9413 128.443 24.484C128.182 24.0173 127.837 23.672 127.407 23.448C126.978 23.2147 126.511 23.098 126.007 23.098C125.503 23.098 125.037 23.2147 124.607 23.448C124.178 23.672 123.833 24.0173 123.571 24.484C123.319 24.9413 123.193 25.506 123.193 26.178C123.193 26.85 123.319 27.4193 123.571 27.886C123.833 28.3433 124.173 28.6887 124.593 28.922C125.023 29.146 125.489 29.258 125.993 29.258ZM132.596 24.036C132.838 23.5227 133.221 23.098 133.744 22.762C134.276 22.4167 134.906 22.244 135.634 22.244C136.324 22.244 136.945 22.4073 137.496 22.734C138.056 23.0513 138.49 23.5087 138.798 24.106C139.115 24.694 139.274 25.38 139.274 26.164C139.274 26.948 139.115 27.6387 138.798 28.236C138.49 28.8333 138.056 29.2953 137.496 29.622C136.945 29.9487 136.324 30.112 135.634 30.112C134.915 30.112 134.29 29.944 133.758 29.608C133.226 29.2627 132.838 28.8333 132.596 28.32V33.612H131.63V22.356H132.596V24.036ZM138.28 26.164C138.28 25.5293 138.154 24.9833 137.902 24.526C137.659 24.0593 137.323 23.7047 136.894 23.462C136.464 23.2193 135.979 23.098 135.438 23.098C134.915 23.098 134.434 23.224 133.996 23.476C133.566 23.728 133.226 24.0873 132.974 24.554C132.722 25.0207 132.596 25.562 132.596 26.178C132.596 26.794 132.722 27.3353 132.974 27.802C133.226 28.2687 133.566 28.628 133.996 28.88C134.434 29.132 134.915 29.258 135.438 29.258C135.979 29.258 136.464 29.1367 136.894 28.894C137.323 28.642 137.659 28.2827 137.902 27.816C138.154 27.34 138.28 26.7893 138.28 26.164ZM150.177 22.216C151.073 22.216 151.801 22.5007 152.361 23.07C152.93 23.63 153.215 24.4467 153.215 25.52V30H152.249V25.632C152.249 24.8013 152.048 24.1667 151.647 23.728C151.246 23.2893 150.7 23.07 150.009 23.07C149.29 23.07 148.716 23.308 148.287 23.784C147.858 24.26 147.643 24.9507 147.643 25.856V30H146.677V25.632C146.677 24.8013 146.476 24.1667 146.075 23.728C145.674 23.2893 145.123 23.07 144.423 23.07C143.704 23.07 143.13 23.308 142.701 23.784C142.272 24.26 142.057 24.9507 142.057 25.856V30H141.077V22.356H142.057V23.672C142.3 23.196 142.645 22.8367 143.093 22.594C143.541 22.342 144.04 22.216 144.591 22.216C145.254 22.216 145.832 22.3747 146.327 22.692C146.831 23.0093 147.195 23.476 147.419 24.092C147.624 23.4853 147.974 23.0233 148.469 22.706C148.973 22.3793 149.542 22.216 150.177 22.216ZM162.307 25.786C162.307 26.122 162.298 26.3787 162.279 26.556H155.937C155.965 27.1347 156.105 27.6293 156.357 28.04C156.609 28.4507 156.941 28.7633 157.351 28.978C157.762 29.1833 158.21 29.286 158.695 29.286C159.33 29.286 159.862 29.132 160.291 28.824C160.73 28.516 161.019 28.1007 161.159 27.578H162.195C162.009 28.3247 161.607 28.936 160.991 29.412C160.385 29.8787 159.619 30.112 158.695 30.112C157.977 30.112 157.333 29.9533 156.763 29.636C156.194 29.3093 155.746 28.852 155.419 28.264C155.102 27.6667 154.943 26.9713 154.943 26.178C154.943 25.3847 155.102 24.6893 155.419 24.092C155.737 23.4947 156.18 23.0373 156.749 22.72C157.319 22.4027 157.967 22.244 158.695 22.244C159.423 22.244 160.058 22.4027 160.599 22.72C161.15 23.0373 161.57 23.4667 161.859 24.008C162.158 24.54 162.307 25.1327 162.307 25.786ZM161.313 25.758C161.323 25.1887 161.206 24.7033 160.963 24.302C160.73 23.9007 160.408 23.5973 159.997 23.392C159.587 23.1867 159.139 23.084 158.653 23.084C157.925 23.084 157.305 23.3173 156.791 23.784C156.278 24.2507 155.993 24.9087 155.937 25.758H161.313ZM167.684 22.216C168.599 22.216 169.346 22.5007 169.924 23.07C170.503 23.63 170.792 24.4467 170.792 25.52V30H169.826V25.632C169.826 24.8013 169.616 24.1667 169.196 23.728C168.786 23.2893 168.221 23.07 167.502 23.07C166.765 23.07 166.177 23.3033 165.738 23.77C165.3 24.2367 165.08 24.9227 165.08 25.828V30H164.1V22.356H165.08V23.658C165.323 23.1913 165.673 22.8367 166.13 22.594C166.588 22.342 167.106 22.216 167.684 22.216ZM174.234 23.182V27.928C174.234 28.3947 174.323 28.7167 174.5 28.894C174.677 29.0713 174.99 29.16 175.438 29.16H176.334V30H175.284C174.593 30 174.08 29.8413 173.744 29.524C173.408 29.1973 173.24 28.6653 173.24 27.928V23.182H172.176V22.356H173.24V20.438H174.234V22.356H176.334V23.182H174.234Z" fill="#ADADAD"/>
<rect x="0.500488" y="0.5" width="189.999" height="49" rx="24.5" stroke="#ADADAD"/>
</svg>
