<svg width="233" height="50" viewBox="0 0 233 50" fill="none" xmlns="http://www.w3.org/2000/svg">
<path d="M26.302 22.5656C28.6568 18.8534 30.7222 17 32.4996 17C35.1664 17 36.8504 19.9508 37.8331 23.9563C38.7719 27.7818 38.4998 33.0007 35.1664 33.0007C33.681 33.0007 31.6356 30.9139 29.6355 28.1311C28.3628 26.3776 27.2473 24.5152 26.302 22.5656ZM26.302 22.5656C23.9472 18.8534 21.8818 17 20.1044 17C17.4376 17 15.7536 19.9508 14.7709 23.9563C13.8322 27.7818 14.1042 33.0007 17.4376 33.0007C18.923 33.0007 20.9684 30.9139 22.9685 28.1311C24.3019 26.2764 25.4126 24.4203 26.302 22.5656Z" stroke="#ADADAD" stroke-width="2" stroke-linecap="round" stroke-linejoin="round"/>
<path d="M58.984 20.34V30H58.004V22.286L54.56 30H53.846L50.402 22.314V30H49.422V20.34H50.458L54.196 28.712L57.934 20.34H58.984ZM68.1232 25.786C68.1232 26.122 68.1138 26.3787 68.0952 26.556H61.7532C61.7812 27.1347 61.9212 27.6293 62.1732 28.04C62.4252 28.4507 62.7565 28.7633 63.1672 28.978C63.5778 29.1833 64.0258 29.286 64.5112 29.286C65.1458 29.286 65.6778 29.132 66.1072 28.824C66.5458 28.516 66.8352 28.1007 66.9752 27.578H68.0112C67.8245 28.3247 67.4232 28.936 66.8072 29.412C66.2005 29.8787 65.4352 30.112 64.5112 30.112C63.7925 30.112 63.1485 29.9533 62.5792 29.636C62.0098 29.3093 61.5618 28.852 61.2352 28.264C60.9178 27.6667 60.7592 26.9713 60.7592 26.178C60.7592 25.3847 60.9178 24.6893 61.2352 24.092C61.5525 23.4947 61.9958 23.0373 62.5652 22.72C63.1345 22.4027 63.7832 22.244 64.5112 22.244C65.2392 22.244 65.8738 22.4027 66.4152 22.72C66.9658 23.0373 67.3858 23.4667 67.6752 24.008C67.9738 24.54 68.1232 25.1327 68.1232 25.786ZM67.1292 25.758C67.1385 25.1887 67.0218 24.7033 66.7792 24.302C66.5458 23.9007 66.2238 23.5973 65.8132 23.392C65.4025 23.1867 64.9545 23.084 64.4692 23.084C63.7412 23.084 63.1205 23.3173 62.6072 23.784C62.0938 24.2507 61.8092 24.9087 61.7532 25.758H67.1292ZM71.1901 23.182V27.928C71.1901 28.3947 71.2788 28.7167 71.4561 28.894C71.6335 29.0713 71.9461 29.16 72.3941 29.16H73.2901V30H72.2401C71.5495 30 71.0361 29.8413 70.7001 29.524C70.3641 29.1973 70.1961 28.6653 70.1961 27.928V23.182H69.1321V22.356H70.1961V20.438H71.1901V22.356H73.2901V23.182H71.1901ZM74.4584 26.164C74.4584 25.38 74.6124 24.694 74.9204 24.106C75.2377 23.5087 75.6717 23.0513 76.2224 22.734C76.7824 22.4073 77.4124 22.244 78.1124 22.244C78.8404 22.244 79.4657 22.412 79.9884 22.748C80.5204 23.084 80.903 23.5133 81.1364 24.036V22.356H82.1164V30H81.1364V28.306C80.8937 28.8287 80.5064 29.2627 79.9744 29.608C79.4517 29.944 78.8264 30.112 78.0984 30.112C77.4077 30.112 76.7824 29.9487 76.2224 29.622C75.6717 29.2953 75.2377 28.8333 74.9204 28.236C74.6124 27.6387 74.4584 26.948 74.4584 26.164ZM81.1364 26.178C81.1364 25.562 81.0104 25.0207 80.7584 24.554C80.5064 24.0873 80.161 23.728 79.7224 23.476C79.293 23.224 78.817 23.098 78.2944 23.098C77.753 23.098 77.2677 23.2193 76.8384 23.462C76.409 23.7047 76.0684 24.0593 75.8164 24.526C75.5737 24.9833 75.4524 25.5293 75.4524 26.164C75.4524 26.7893 75.5737 27.34 75.8164 27.816C76.0684 28.2827 76.409 28.642 76.8384 28.894C77.2677 29.1367 77.753 29.258 78.2944 29.258C78.817 29.258 79.293 29.132 79.7224 28.88C80.161 28.628 80.5064 28.2687 80.7584 27.802C81.0104 27.3353 81.1364 26.794 81.1364 26.178ZM87.0696 29.048L89.6456 22.356H90.6816L87.6156 30H86.5096L83.4436 22.356H84.4936L87.0696 29.048ZM98.9259 25.786C98.9259 26.122 98.9166 26.3787 98.8979 26.556H92.5559C92.5839 27.1347 92.7239 27.6293 92.9759 28.04C93.2279 28.4507 93.5592 28.7633 93.9699 28.978C94.3806 29.1833 94.8286 29.286 95.3139 29.286C95.9486 29.286 96.4806 29.132 96.9099 28.824C97.3486 28.516 97.6379 28.1007 97.7779 27.578H98.8139C98.6272 28.3247 98.2259 28.936 97.6099 29.412C97.0032 29.8787 96.2379 30.112 95.3139 30.112C94.5952 30.112 93.9512 29.9533 93.3819 29.636C92.8126 29.3093 92.3646 28.852 92.0379 28.264C91.7206 27.6667 91.5619 26.9713 91.5619 26.178C91.5619 25.3847 91.7206 24.6893 92.0379 24.092C92.3552 23.4947 92.7986 23.0373 93.3679 22.72C93.9372 22.4027 94.5859 22.244 95.3139 22.244C96.0419 22.244 96.6766 22.4027 97.2179 22.72C97.7686 23.0373 98.1886 23.4667 98.4779 24.008C98.7766 24.54 98.9259 25.1327 98.9259 25.786ZM97.9319 25.758C97.9412 25.1887 97.8246 24.7033 97.5819 24.302C97.3486 23.9007 97.0266 23.5973 96.6159 23.392C96.2052 23.1867 95.7572 23.084 95.2719 23.084C94.5439 23.084 93.9232 23.3173 93.4099 23.784C92.8966 24.2507 92.6119 24.9087 92.5559 25.758H97.9319ZM101.699 23.714C101.914 23.238 102.24 22.8693 102.679 22.608C103.127 22.3467 103.673 22.216 104.317 22.216V23.238H104.051C103.342 23.238 102.772 23.4293 102.343 23.812C101.914 24.1947 101.699 24.834 101.699 25.73V30H100.719V22.356H101.699V23.714ZM108.423 30.112C107.546 30.112 106.827 29.9113 106.267 29.51C105.716 29.0993 105.408 28.544 105.343 27.844H106.351C106.398 28.2733 106.598 28.6233 106.953 28.894C107.317 29.1553 107.802 29.286 108.409 29.286C108.941 29.286 109.356 29.16 109.655 28.908C109.963 28.656 110.117 28.3433 110.117 27.97C110.117 27.7087 110.033 27.494 109.865 27.326C109.697 27.158 109.482 27.0273 109.221 26.934C108.969 26.8313 108.624 26.724 108.185 26.612C107.616 26.4627 107.154 26.3133 106.799 26.164C106.444 26.0147 106.141 25.7953 105.889 25.506C105.646 25.2073 105.525 24.8107 105.525 24.316C105.525 23.9427 105.637 23.5973 105.861 23.28C106.085 22.9627 106.402 22.7107 106.813 22.524C107.224 22.3373 107.69 22.244 108.213 22.244C109.034 22.244 109.697 22.454 110.201 22.874C110.705 23.2847 110.976 23.854 111.013 24.582H110.033C110.005 24.134 109.828 23.7747 109.501 23.504C109.184 23.224 108.745 23.084 108.185 23.084C107.69 23.084 107.289 23.2007 106.981 23.434C106.673 23.6673 106.519 23.9567 106.519 24.302C106.519 24.6007 106.608 24.848 106.785 25.044C106.972 25.2307 107.2 25.38 107.471 25.492C107.742 25.5947 108.106 25.7113 108.563 25.842C109.114 25.9913 109.552 26.136 109.879 26.276C110.206 26.416 110.486 26.6213 110.719 26.892C110.952 27.1627 111.074 27.522 111.083 27.97C111.083 28.3807 110.971 28.7493 110.747 29.076C110.523 29.3933 110.21 29.6453 109.809 29.832C109.408 30.0187 108.946 30.112 108.423 30.112ZM119.844 25.786C119.844 26.122 119.835 26.3787 119.816 26.556H113.474C113.502 27.1347 113.642 27.6293 113.894 28.04C114.146 28.4507 114.477 28.7633 114.888 28.978C115.299 29.1833 115.747 29.286 116.232 29.286C116.867 29.286 117.399 29.132 117.828 28.824C118.267 28.516 118.556 28.1007 118.696 27.578H119.732C119.545 28.3247 119.144 28.936 118.528 29.412C117.921 29.8787 117.156 30.112 116.232 30.112C115.513 30.112 114.869 29.9533 114.3 29.636C113.731 29.3093 113.283 28.852 112.956 28.264C112.639 27.6667 112.48 26.9713 112.48 26.178C112.48 25.3847 112.639 24.6893 112.956 24.092C113.273 23.4947 113.717 23.0373 114.286 22.72C114.855 22.4027 115.504 22.244 116.232 22.244C116.96 22.244 117.595 22.4027 118.136 22.72C118.687 23.0373 119.107 23.4667 119.396 24.008C119.695 24.54 119.844 25.1327 119.844 25.786ZM118.85 25.758C118.859 25.1887 118.743 24.7033 118.5 24.302C118.267 23.9007 117.945 23.5973 117.534 23.392C117.123 23.1867 116.675 23.084 116.19 23.084C115.462 23.084 114.841 23.3173 114.328 23.784C113.815 24.2507 113.53 24.9087 113.474 25.758H118.85ZM128.377 20.214C129.459 20.214 130.388 20.41 131.163 20.802C131.937 21.194 132.53 21.7587 132.941 22.496C133.351 23.2333 133.557 24.1107 133.557 25.128C133.557 26.136 133.351 27.0087 132.941 27.746C132.53 28.474 131.937 29.034 131.163 29.426C130.388 29.8087 129.459 30 128.377 30H125.479V20.214H128.377ZM128.377 29.188C129.739 29.188 130.775 28.8333 131.485 28.124C132.203 27.4053 132.563 26.4067 132.563 25.128C132.563 23.84 132.203 22.8367 131.485 22.118C130.775 21.39 129.739 21.026 128.377 21.026H126.459V29.188H128.377ZM142.279 25.786C142.279 26.122 142.27 26.3787 142.251 26.556H135.909C135.937 27.1347 136.077 27.6293 136.329 28.04C136.581 28.4507 136.913 28.7633 137.323 28.978C137.734 29.1833 138.182 29.286 138.667 29.286C139.302 29.286 139.834 29.132 140.263 28.824C140.702 28.516 140.991 28.1007 141.131 27.578H142.167C141.981 28.3247 141.579 28.936 140.963 29.412C140.357 29.8787 139.591 30.112 138.667 30.112C137.949 30.112 137.305 29.9533 136.735 29.636C136.166 29.3093 135.718 28.852 135.391 28.264C135.074 27.6667 134.915 26.9713 134.915 26.178C134.915 25.3847 135.074 24.6893 135.391 24.092C135.709 23.4947 136.152 23.0373 136.721 22.72C137.291 22.4027 137.939 22.244 138.667 22.244C139.395 22.244 140.03 22.4027 140.571 22.72C141.122 23.0373 141.542 23.4667 141.831 24.008C142.13 24.54 142.279 25.1327 142.279 25.786ZM141.285 25.758C141.295 25.1887 141.178 24.7033 140.935 24.302C140.702 23.9007 140.38 23.5973 139.969 23.392C139.559 23.1867 139.111 23.084 138.625 23.084C137.897 23.084 137.277 23.3173 136.763 23.784C136.25 24.2507 135.965 24.9087 135.909 25.758H141.285ZM146.788 29.048L149.364 22.356H150.4L147.334 30H146.228L143.162 22.356H144.212L146.788 29.048ZM158.645 25.786C158.645 26.122 158.635 26.3787 158.617 26.556H152.275C152.303 27.1347 152.443 27.6293 152.695 28.04C152.947 28.4507 153.278 28.7633 153.689 28.978C154.099 29.1833 154.547 29.286 155.033 29.286C155.667 29.286 156.199 29.132 156.629 28.824C157.067 28.516 157.357 28.1007 157.497 27.578H158.533C158.346 28.3247 157.945 28.936 157.329 29.412C156.722 29.8787 155.957 30.112 155.033 30.112C154.314 30.112 153.67 29.9533 153.101 29.636C152.531 29.3093 152.083 28.852 151.757 28.264C151.439 27.6667 151.281 26.9713 151.281 26.178C151.281 25.3847 151.439 24.6893 151.757 24.092C152.074 23.4947 152.517 23.0373 153.087 22.72C153.656 22.4027 154.305 22.244 155.033 22.244C155.761 22.244 156.395 22.4027 156.937 22.72C157.487 23.0373 157.907 23.4667 158.197 24.008C158.495 24.54 158.645 25.1327 158.645 25.786ZM157.651 25.758C157.66 25.1887 157.543 24.7033 157.301 24.302C157.067 23.9007 156.745 23.5973 156.335 23.392C155.924 23.1867 155.476 23.084 154.991 23.084C154.263 23.084 153.642 23.3173 153.129 23.784C152.615 24.2507 152.331 24.9087 152.275 25.758H157.651ZM161.418 19.64V30H160.438V19.64H161.418ZM166.983 30.112C166.264 30.112 165.616 29.9533 165.037 29.636C164.468 29.3093 164.015 28.852 163.679 28.264C163.352 27.6667 163.189 26.9713 163.189 26.178C163.189 25.3847 163.357 24.694 163.693 24.106C164.029 23.5087 164.486 23.0513 165.065 22.734C165.644 22.4073 166.292 22.244 167.011 22.244C167.73 22.244 168.378 22.4073 168.957 22.734C169.545 23.0513 170.002 23.5087 170.329 24.106C170.665 24.694 170.833 25.3847 170.833 26.178C170.833 26.962 170.665 27.6527 170.329 28.25C169.993 28.8473 169.531 29.3093 168.943 29.636C168.355 29.9533 167.702 30.112 166.983 30.112ZM166.983 29.258C167.487 29.258 167.954 29.146 168.383 28.922C168.812 28.6887 169.158 28.3433 169.419 27.886C169.69 27.4193 169.825 26.85 169.825 26.178C169.825 25.506 169.694 24.9413 169.433 24.484C169.172 24.0173 168.826 23.672 168.397 23.448C167.968 23.2147 167.501 23.098 166.997 23.098C166.493 23.098 166.026 23.2147 165.597 23.448C165.168 23.672 164.822 24.0173 164.561 24.484C164.309 24.9413 164.183 25.506 164.183 26.178C164.183 26.85 164.309 27.4193 164.561 27.886C164.822 28.3433 165.163 28.6887 165.583 28.922C166.012 29.146 166.479 29.258 166.983 29.258ZM173.585 24.036C173.828 23.5227 174.211 23.098 174.733 22.762C175.265 22.4167 175.895 22.244 176.623 22.244C177.314 22.244 177.935 22.4073 178.485 22.734C179.045 23.0513 179.479 23.5087 179.787 24.106C180.105 24.694 180.263 25.38 180.263 26.164C180.263 26.948 180.105 27.6387 179.787 28.236C179.479 28.8333 179.045 29.2953 178.485 29.622C177.935 29.9487 177.314 30.112 176.623 30.112C175.905 30.112 175.279 29.944 174.747 29.608C174.215 29.2627 173.828 28.8333 173.585 28.32V33.612H172.619V22.356H173.585V24.036ZM179.269 26.164C179.269 25.5293 179.143 24.9833 178.891 24.526C178.649 24.0593 178.313 23.7047 177.883 23.462C177.454 23.2193 176.969 23.098 176.427 23.098C175.905 23.098 175.424 23.224 174.985 23.476C174.556 23.728 174.215 24.0873 173.963 24.554C173.711 25.0207 173.585 25.562 173.585 26.178C173.585 26.794 173.711 27.3353 173.963 27.802C174.215 28.2687 174.556 28.628 174.985 28.88C175.424 29.132 175.905 29.258 176.427 29.258C176.969 29.258 177.454 29.1367 177.883 28.894C178.313 28.642 178.649 28.2827 178.891 27.816C179.143 27.34 179.269 26.7893 179.269 26.164ZM191.167 22.216C192.063 22.216 192.791 22.5007 193.351 23.07C193.92 23.63 194.205 24.4467 194.205 25.52V30H193.239V25.632C193.239 24.8013 193.038 24.1667 192.637 23.728C192.235 23.2893 191.689 23.07 190.999 23.07C190.28 23.07 189.706 23.308 189.277 23.784C188.847 24.26 188.633 24.9507 188.633 25.856V30H187.667V25.632C187.667 24.8013 187.466 24.1667 187.065 23.728C186.663 23.2893 186.113 23.07 185.413 23.07C184.694 23.07 184.12 23.308 183.691 23.784C183.261 24.26 183.047 24.9507 183.047 25.856V30H182.067V22.356H183.047V23.672C183.289 23.196 183.635 22.8367 184.083 22.594C184.531 22.342 185.03 22.216 185.581 22.216C186.243 22.216 186.822 22.3747 187.317 22.692C187.821 23.0093 188.185 23.476 188.409 24.092C188.614 23.4853 188.964 23.0233 189.459 22.706C189.963 22.3793 190.532 22.216 191.167 22.216ZM203.297 25.786C203.297 26.122 203.288 26.3787 203.269 26.556H196.927C196.955 27.1347 197.095 27.6293 197.347 28.04C197.599 28.4507 197.93 28.7633 198.341 28.978C198.752 29.1833 199.2 29.286 199.685 29.286C200.32 29.286 200.852 29.132 201.281 28.824C201.72 28.516 202.009 28.1007 202.149 27.578H203.185C202.998 28.3247 202.597 28.936 201.981 29.412C201.374 29.8787 200.609 30.112 199.685 30.112C198.966 30.112 198.322 29.9533 197.753 29.636C197.184 29.3093 196.736 28.852 196.409 28.264C196.092 27.6667 195.933 26.9713 195.933 26.178C195.933 25.3847 196.092 24.6893 196.409 24.092C196.726 23.4947 197.17 23.0373 197.739 22.72C198.308 22.4027 198.957 22.244 199.685 22.244C200.413 22.244 201.048 22.4027 201.589 22.72C202.14 23.0373 202.56 23.4667 202.849 24.008C203.148 24.54 203.297 25.1327 203.297 25.786ZM202.303 25.758C202.312 25.1887 202.196 24.7033 201.953 24.302C201.72 23.9007 201.398 23.5973 200.987 23.392C200.576 23.1867 200.128 23.084 199.643 23.084C198.915 23.084 198.294 23.3173 197.781 23.784C197.268 24.2507 196.983 24.9087 196.927 25.758H202.303ZM208.674 22.216C209.589 22.216 210.335 22.5007 210.914 23.07C211.493 23.63 211.782 24.4467 211.782 25.52V30H210.816V25.632C210.816 24.8013 210.606 24.1667 210.186 23.728C209.775 23.2893 209.211 23.07 208.492 23.07C207.755 23.07 207.167 23.3033 206.728 23.77C206.289 24.2367 206.07 24.9227 206.07 25.828V30H205.09V22.356H206.07V23.658C206.313 23.1913 206.663 22.8367 207.12 22.594C207.577 22.342 208.095 22.216 208.674 22.216ZM215.223 23.182V27.928C215.223 28.3947 215.312 28.7167 215.489 28.894C215.667 29.0713 215.979 29.16 216.427 29.16H217.323V30H216.273C215.583 30 215.069 29.8413 214.733 29.524C214.397 29.1973 214.229 28.6653 214.229 27.928V23.182H213.165V22.356H214.229V20.438H215.223V22.356H217.323V23.182H215.223Z" fill="#ADADAD"/>
<rect x="0.802002" y="0.5" width="231" height="49" rx="24.5" stroke="#ADADAD"/>
</svg>
