<svg width="144" height="28" viewBox="0 0 144 28" fill="none" xmlns="http://www.w3.org/2000/svg">
<path d="M17.806 14.0009L22.7049 5.53963L25.072 14.0009L22.7048 22.46L17.806 14.0009ZM15.4184 15.3749L20.3179 23.8348L11.7851 21.6482L5.62078 15.3749H15.4184ZM20.3168 4.16449L15.4184 12.6257H5.62078L11.7851 6.35197L20.3168 4.16449ZM27.3101 11.1213L24.3215 0L13.1666 2.98051L11.5154 5.88438L8.16473 5.86036L0 14.0016L8.16473 22.1409H8.16505L11.5143 22.1162L13.1679 25.02L24.3215 28L27.31 16.8808L25.6128 14.001L27.31 11.1215L27.3101 11.1213Z" fill="#2B2B2B"/>
<path d="M81.714 15.5922C81.5115 14.1714 81.0181 12.824 80.247 11.5878C79.5745 10.509 78.7116 9.54954 77.6817 8.73404L77.6844 8.73148L66.8674 0.445292C66.8596 0.438444 66.8514 0.431993 66.843 0.425964C66.4834 0.151192 65.9965 0 65.4725 0C64.9478 0 64.4418 0.151529 64.0485 0.426839C63.6256 0.721478 63.3839 1.11242 63.367 1.52855C63.3515 1.9168 63.5372 2.29037 63.8912 2.58158C64.5874 3.12944 65.282 3.68922 65.9776 4.24967C66.6527 4.79383 67.3482 5.35421 68.0404 5.89978L54.7913 5.89083C53.2761 5.89083 52.2444 6.60045 52.0321 7.7885C51.9389 8.30889 52.1035 8.88106 52.4713 9.31928C52.8616 9.78383 53.4283 10.0401 54.0669 10.0401L55.0769 10.0408C56.4722 10.0408 57.8737 10.0373 59.2733 10.034L60.6079 10.0309L48.5832 18.9036L48.5355 18.9384C47.8638 19.4518 47.4241 20.1717 47.3292 20.9132C47.2573 21.475 47.3887 21.9884 47.7094 22.3984C48.0916 22.8872 48.6883 23.1561 49.3897 23.1561C50.0788 23.1561 50.7819 22.8956 51.3705 22.4215L57.864 17.1213C57.8363 17.3801 57.8026 17.7598 57.8064 18.0354C57.8137 18.4717 57.9542 19.3472 58.1765 20.058C58.636 21.5188 59.4099 22.8552 60.4766 24.0289C61.5866 25.2501 62.9384 26.2183 64.4943 26.9061C66.1392 27.6317 67.9075 28 69.7501 28H69.7672C71.6158 27.9956 73.3896 27.6214 75.0399 26.8875C76.5983 26.1916 77.9495 25.2194 79.0553 23.9985C80.1207 22.8188 80.8935 21.4801 81.3521 20.0206C81.5789 19.2981 81.7243 18.5526 81.7853 17.7979C81.842 17.0686 81.8176 16.3264 81.714 15.5922ZM69.8848 22.5934C65.8239 22.5934 62.5307 19.6553 62.5307 16.0307C62.5307 12.4066 65.8239 9.46845 69.8848 9.46845C73.9459 9.46845 77.2387 12.4066 77.2387 16.0307C77.2388 19.6553 73.9459 22.5934 69.8848 22.5934ZM74.1258 15.454C74.1857 16.5358 73.7525 17.5403 72.9917 18.2838C72.2178 19.0414 71.1135 19.5172 69.8786 19.5172C68.6443 19.5172 67.5398 19.0414 66.7656 18.2838C66.0052 17.5403 65.5728 16.5359 65.6324 15.4549C65.6907 14.4041 66.2046 13.4766 66.9787 12.8198C67.7399 12.174 68.762 11.78 69.8786 11.78C70.9952 11.78 72.0171 12.1741 72.7783 12.8198C73.5528 13.4766 74.0669 14.4034 74.1258 15.454Z" fill="#2B2B2B"/>
<path d="M134.961 0C138.566 1.34216 141.479 4.26916 142.953 7.80823C143.276 8.69739 143.482 9.6159 143.663 10.5441C143.769 11.5335 143.774 12.5305 143.681 13.5223C143.492 13.1893 143.257 12.8856 143.007 12.5965C142.904 12.6015 142.698 12.6136 142.593 12.6186C142.527 12.7705 142.395 13.0741 142.329 13.226C141.623 14.5512 140.633 15.6997 139.6 16.7775C139.882 15.9274 140.193 15.0851 140.428 14.2204C140.947 12.386 140.92 10.4558 140.795 8.57001C140.592 7.3968 140.197 6.25303 139.673 5.18756C138.909 3.67642 137.91 2.24101 136.558 1.20015C136.036 0.783831 135.48 0.416421 134.961 0ZM113.094 5.7705C115.374 3.59068 118.247 2.16036 121.167 1.04093C120.013 1.77333 118.72 2.71382 118.576 4.19079C118.421 5.29043 118.967 6.76488 120.241 6.84082C120.319 7.17386 120.413 7.50942 120.403 7.85721C120.395 11.6977 120.395 15.5404 120.4 19.3834C120.307 20.1744 121.008 20.8114 121.755 20.8776C123.092 20.9436 124.419 20.4193 125.434 19.5573C125.5 18.4331 125.377 17.3039 125.522 16.1847C125.421 15.6164 125.416 15.041 125.524 14.475C125.421 13.7451 125.406 13.0006 125.527 12.2707C125.416 11.0485 125.392 9.80433 125.539 8.58459C125.522 7.37471 124.713 6.2847 123.484 6.05941C124.082 5.96135 124.684 5.94917 125.287 6.02019C125.632 6.29692 126.19 6.81621 126.56 6.27982C127.817 4.91561 129.404 3.89669 131.091 3.14474C132.397 2.63781 133.759 2.21657 135.167 2.14558C133.317 3.01262 131.708 4.4797 130.925 6.39255C130.805 6.78686 130.697 7.18369 130.579 7.58045C130.56 11.5825 130.567 15.5844 130.577 19.5891C130.755 19.7503 130.933 19.9128 131.109 20.0766C133.303 20.2041 134.915 18.4159 136.423 17.0786C135.052 20.5834 132.149 23.3241 128.926 25.1466C128.493 24.8723 128.02 24.674 127.581 24.4118C126.942 24.0248 126.536 23.3781 126.043 22.8345C125.029 23.9684 123.846 24.963 122.636 25.8861C121.799 25.7809 120.966 25.6264 120.128 25.514C119.465 25.3547 118.796 25.2174 118.137 25.0388C117.824 24.9213 117.503 24.8232 117.189 24.7107C116.383 24.4315 115.629 24.0296 114.894 23.6034C114.208 23.1457 113.672 22.5113 113.097 21.9283C113.667 21.9086 114.343 22.0751 114.816 21.6566C115.222 21.2499 115.266 20.6328 115.266 20.0912C115.269 17.059 115.247 14.027 115.276 10.9948C115.112 10.3849 114.715 9.68201 113.973 9.77996C112.866 9.94894 111.899 10.5882 111.093 11.3352C109.288 13.0619 108.11 15.3056 107.147 17.5807C107.412 13.0423 109.673 8.72916 113.094 5.7705Z" fill="#2B2B2B"/>
<path d="M102.749 15.4114C103.393 13.741 104.686 12.4845 105.908 11.2305C105.715 12.1441 105.374 13.016 105.107 13.9076C104.928 14.581 104.776 15.2619 104.728 15.9601C104.463 17.3046 104.436 18.7471 104.701 20.0942C104.772 20.425 104.833 20.7582 104.936 21.0816C105.017 21.3251 105.097 21.5691 105.176 21.8137C105.318 22.1491 105.467 22.4821 105.602 22.8227C106.608 24.9218 108.137 26.7563 110.118 28.0006C106.378 26.5285 103.329 23.2809 102.188 19.4158C101.786 17.809 101.761 16.1438 101.872 14.5001C102.1 14.8604 102.411 15.1541 102.749 15.4114Z" fill="#2B2B2B"/>
</svg>
