<svg width="25" height="18" viewBox="0 0 25 18" fill="none" xmlns="http://www.w3.org/2000/svg">
<path d="M17.1805 7.36364H14.7259C14.5089 7.36364 14.3008 7.27744 14.1474 7.124C13.9939 6.97056 13.9077 6.76245 13.9077 6.54545C13.9077 6.32846 13.9939 6.12035 14.1474 5.96691C14.3008 5.81347 14.5089 5.72727 14.7259 5.72727H17.1805C17.3975 5.72727 17.6056 5.81347 17.759 5.96691C17.9124 6.12035 17.9986 6.32846 17.9986 6.54545C17.9986 6.76245 17.9124 6.97056 17.759 7.124C17.6056 7.27744 17.3975 7.36364 17.1805 7.36364ZM9.81682 5.72727H8.99864V4.90909C8.99864 4.6921 8.91244 4.48399 8.759 4.33055C8.60556 4.17711 8.39745 4.09091 8.18046 4.09091C7.96346 4.09091 7.75535 4.17711 7.60191 4.33055C7.44848 4.48399 7.36227 4.6921 7.36227 4.90909V5.72727H6.54409C6.3271 5.72727 6.11899 5.81347 5.96555 5.96691C5.81211 6.12035 5.72591 6.32846 5.72591 6.54545C5.72591 6.76245 5.81211 6.97056 5.96555 7.124C6.11899 7.27744 6.3271 7.36364 6.54409 7.36364H7.36227V8.18182C7.36227 8.39881 7.44848 8.60692 7.60191 8.76036C7.75535 8.9138 7.96346 9 8.18046 9C8.39745 9 8.60556 8.9138 8.759 8.76036C8.91244 8.60692 8.99864 8.39881 8.99864 8.18182V7.36364H9.81682C10.0338 7.36364 10.2419 7.27744 10.3954 7.124C10.5488 6.97056 10.635 6.76245 10.635 6.54545C10.635 6.32846 10.5488 6.12035 10.3954 5.96691C10.2419 5.81347 10.0338 5.72727 9.81682 5.72727ZM23.8773 16.4301C23.5689 16.8704 23.1679 17.2379 22.7023 17.5067C22.2368 17.7755 21.718 17.9391 21.1825 17.986C20.647 18.0328 20.1077 17.9619 19.6025 17.7781C19.0974 17.5943 18.6386 17.3021 18.2584 16.922C18.2461 16.9098 18.2339 16.8975 18.2226 16.8842L14.1614 12.2727H10.3773L6.32012 16.8842L6.28432 16.922C5.59316 17.6117 4.65684 17.9993 3.68046 18C3.14295 17.9998 2.61201 17.8819 2.12492 17.6546C1.63784 17.4273 1.20642 17.0962 0.860989 16.6843C0.515555 16.2725 0.264477 15.7901 0.125394 15.2709C-0.0136897 14.7517 -0.0374059 14.2083 0.0559112 13.679C0.0554186 13.6742 0.0554186 13.6694 0.0559112 13.6647L1.73012 5.06455C1.97928 3.64609 2.72038 2.36083 3.82318 1.43459C4.92599 0.508358 6.31994 0.000408524 7.76012 0H16.7714C18.2072 0.00229061 19.5969 0.507335 20.6991 1.42745C21.8014 2.34756 22.5466 3.62463 22.8055 5.03693V5.05534L24.4797 13.6636C24.4802 13.6684 24.4802 13.6732 24.4797 13.678C24.5663 14.1537 24.5577 14.642 24.4543 15.1144C24.3509 15.5868 24.1548 16.034 23.8773 16.4301ZM16.7714 10.6364C17.9648 10.6364 19.1094 10.1623 19.9533 9.31834C20.7973 8.47443 21.2714 7.32984 21.2714 6.13636C21.2714 4.94289 20.7973 3.7983 19.9533 2.95438C19.1094 2.11047 17.9648 1.63636 16.7714 1.63636H7.76012C6.70359 1.63731 5.68124 2.01082 4.87293 2.69118C4.06462 3.37153 3.52213 4.31515 3.34091 5.35602V5.36932L1.66568 13.9694C1.59164 14.3958 1.65472 14.8347 1.84587 15.2229C2.03701 15.6112 2.34637 15.9288 2.72944 16.1301C3.11251 16.3314 3.54956 16.406 3.97773 16.3432C4.4059 16.2805 4.80312 16.0835 5.11227 15.7807L9.39955 10.9135C9.47631 10.8264 9.57073 10.7567 9.67653 10.7089C9.78233 10.6611 9.89709 10.6364 10.0132 10.6364H16.7714ZM22.877 13.9694L21.9832 9.36716C21.4334 10.2549 20.6662 10.9876 19.7542 11.4961C18.8422 12.0045 17.8155 12.2718 16.7714 12.2727H16.3418L19.4305 15.7817C19.6633 16.0082 19.9466 16.1763 20.257 16.2721C20.5674 16.3679 20.8961 16.3888 21.2161 16.333C21.7493 16.2389 22.2234 15.9372 22.5345 15.4942C22.8456 15.0512 22.9684 14.5029 22.876 13.9694H22.877Z" fill="url(#paint0_linear_183_144)"/>
<defs>
<linearGradient id="paint0_linear_183_144" x1="-1" y1="2.5" x2="15.2897" y2="20.7141" gradientUnits="userSpaceOnUse">
<stop stop-color="#D33ED4"/>
<stop offset="0.484375" stop-color="#5A38DD"/>
<stop offset="1" stop-color="#2DCCFD"/>
</linearGradient>
</defs>
</svg>
