<svg width="130" height="48" viewBox="0 0 130 48" fill="none" xmlns="http://www.w3.org/2000/svg">
<path d="M10.3464 14.5247C10.0962 14.5247 10.0336 14.3997 10.1587 14.2122L11.4723 12.5243C11.5974 12.3368 11.9101 12.2117 12.1603 12.2117H34.4907C34.7409 12.2117 34.8034 12.3993 34.6783 12.5868L33.615 14.2122C33.4899 14.3997 33.1771 14.5873 32.9895 14.5873L10.3464 14.5247ZM0.901323 20.2761C0.651123 20.2761 0.588573 20.151 0.713673 19.9635L2.02722 18.2756C2.15232 18.0881 2.46507 17.963 2.71527 17.963H31.2381C31.4883 17.963 31.6134 18.1506 31.5508 18.3381L31.0504 19.8385C30.9879 20.0885 30.7377 20.2135 30.4875 20.2135L0.901323 20.2761ZM16.0384 26.0274C15.7882 26.0274 15.7257 25.8398 15.8508 25.6523L16.7265 24.0894C16.8516 23.9019 17.1018 23.7143 17.352 23.7143H29.862C30.1122 23.7143 30.2373 23.9019 30.2373 24.1519L30.1122 25.6523C30.1122 25.9023 29.862 26.0899 29.6743 26.0899L16.0384 26.0274ZM80.9654 13.3995C77.0247 14.3997 74.3351 15.1499 70.457 16.1501C69.5187 16.4002 69.4561 16.4627 68.643 15.525C67.7047 14.4622 67.0167 13.7746 65.7032 13.1494C61.7625 11.2115 57.9469 11.7741 54.3816 14.0871C50.1282 16.8378 47.9389 20.9012 48.0015 25.9648C48.064 30.966 51.5043 35.0919 56.4457 35.7796C60.6991 36.3422 64.2645 34.8419 67.0792 31.6536C67.6422 30.966 68.1426 30.2158 68.7681 29.3406H56.6959C55.3824 29.3406 55.0696 28.5279 55.5075 27.4652C56.3206 25.5272 57.8218 22.2765 58.6975 20.6511C58.8852 20.2761 59.323 19.6509 60.2613 19.6509H83.0295C82.9044 21.3388 82.9044 23.0267 82.6542 24.7146C81.9662 29.2156 80.2773 33.3415 77.5251 36.9673C73.0215 42.9062 67.1418 46.5945 59.6983 47.5947C53.5684 48.4074 47.8764 47.2197 42.8724 43.4688C38.2437 39.968 35.6166 35.342 34.9285 29.5907C34.1154 22.7766 36.117 16.6502 40.2453 11.274C44.6863 5.46019 50.566 1.77186 57.7593 0.459058C63.639 -0.603683 69.2685 0.0839731 74.3351 3.52225C77.6502 5.71025 80.0271 8.71093 81.5909 12.3368C81.9662 12.8994 81.716 13.2119 80.9654 13.3995Z" fill="#2B2B2B"/>
<path d="M101.632 47.9998C95.9402 47.8749 90.7486 46.2509 86.3701 42.5031C82.6797 39.3176 80.3654 35.2576 79.6148 30.448C78.4889 23.3898 80.4279 17.1436 84.6813 11.5845C89.2474 5.58814 94.7517 2.46504 102.195 1.15334C108.575 0.0290295 114.58 0.653649 120.022 4.3389C124.963 7.71185 128.028 12.2716 128.841 18.2679C129.904 26.7003 127.465 33.5711 121.648 39.4425C117.52 43.6275 112.453 46.2509 106.636 47.4376C104.947 47.75 103.258 47.8124 101.632 47.9998ZM116.519 22.7652C116.456 21.9532 116.456 21.3285 116.331 20.7039C115.205 14.5202 109.513 11.0223 103.571 12.3965C97.7541 13.7082 94.0011 17.3934 92.6251 23.2649C91.4992 28.1369 93.876 33.0714 98.3796 35.0702C101.82 36.5693 105.26 36.3819 108.575 34.6954C113.516 32.1345 116.206 28.1369 116.519 22.7652Z" fill="#2B2B2B"/>
</svg>
