<svg width="51" height="48" viewBox="0 0 51 48" fill="none" xmlns="http://www.w3.org/2000/svg">
<g clip-path="url(#clip0_189_370)">
<path d="M16.7421 47.2123C15.596 47.2123 14.5138 46.7031 13.7815 45.7799L2.64005 31.9323C1.90782 31.009 1.6214 29.8314 1.90782 28.6851L5.88699 11.3996C6.1416 10.2536 6.90563 9.33032 7.95627 8.8211L24.064 1.11717C24.5734 0.862754 25.1464 0.735352 25.7194 0.735352C26.2925 0.735352 26.8653 0.862562 27.3747 1.11737L43.4826 8.78929C44.533 9.29852 45.2971 10.2218 45.5517 11.3678L49.5309 28.6533C49.7857 29.7994 49.5309 30.9772 48.7988 31.9005L37.6569 45.7481C36.9247 46.6393 35.8425 47.1805 34.6964 47.1805L16.7424 47.2123H16.7421Z" fill="#2B2B2B"/>
<path d="M25.6874 1.53142C26.1332 1.53142 26.5789 1.62682 26.9927 1.81783L43.1006 9.48976C43.9282 9.90358 44.5648 10.6676 44.7558 11.559L48.735 28.8446C48.9578 29.7678 48.735 30.7229 48.1302 31.4549L36.9885 45.3027C36.4155 46.0347 35.524 46.4485 34.601 46.4485H16.7422C15.819 46.4485 14.9278 46.0347 14.3547 45.3027L3.21306 31.4549C2.64004 30.7229 2.41703 29.7678 2.60823 28.8446L6.58741 11.559C6.81022 10.6358 7.41504 9.87177 8.24268 9.48976L24.3508 1.78622C24.7646 1.62702 25.242 1.53161 25.6876 1.53161L25.6874 1.53142ZM25.6874 0.0351562C25.019 0.0351562 24.3506 0.194362 23.7137 0.480777L7.60605 8.1847C6.3326 8.78952 5.44136 9.90358 5.12295 11.2724L1.14378 28.5582C0.825558 29.927 1.14378 31.3277 2.03521 32.4419L13.1769 46.2895C14.0365 47.3718 15.3416 47.9766 16.7104 47.9766H34.569C35.9379 47.9766 37.2431 47.3718 38.1026 46.2895L49.2444 32.4417C50.1357 31.3595 50.4541 29.927 50.1357 28.558L46.1565 11.2724C45.8383 9.90358 44.9468 8.78952 43.6736 8.1847L27.6293 0.480584C27.0245 0.194362 26.3561 0.0351562 25.6874 0.0351562Z" fill="#2B2B2B"/>
<path d="M41.8271 27.4755C41.7953 27.4755 41.7953 27.4755 41.8271 27.4755H41.7953C41.7635 27.4755 41.7316 27.4755 41.7316 27.4437C41.668 27.4437 41.6044 27.4119 41.5406 27.4119C41.3178 27.3801 41.1268 27.3483 40.9358 27.3483C40.8402 27.3483 40.7448 27.3483 40.6174 27.3163H40.5856C39.9172 27.2527 39.3759 27.1891 38.8665 27.0299C38.6437 26.9343 38.5801 26.8071 38.5163 26.6797C38.5163 26.6479 38.4845 26.6479 38.4845 26.6161L38.0707 26.4889C38.2662 24.9914 38.1907 23.4709 37.8479 22.0001C37.5003 20.5171 36.8971 19.1059 36.0652 17.8299L36.3836 17.5435V17.4799C36.3836 17.3207 36.4154 17.1615 36.5426 17.0023C36.9246 16.6521 37.4023 16.3657 37.9753 16.0154C38.0707 15.9518 38.1661 15.92 38.2617 15.8562C38.4527 15.7608 38.6119 15.6654 38.8029 15.538C38.8347 15.5062 38.8983 15.4744 38.9621 15.4108C38.9939 15.3788 39.0257 15.3788 39.0257 15.347C39.4714 14.965 39.567 14.3284 39.2485 13.9144C39.0893 13.6915 38.8029 13.5643 38.5163 13.5643C38.2619 13.5643 38.0389 13.6597 37.8161 13.819L37.7525 13.8826C37.6889 13.9144 37.6569 13.9782 37.5933 14.01C37.4341 14.1692 37.3067 14.2964 37.1795 14.4556C37.1158 14.5192 37.0522 14.6148 36.9566 14.6784C36.5108 15.156 36.097 15.538 35.6832 15.8244C35.5878 15.888 35.4924 15.92 35.3968 15.92C35.3332 15.92 35.2694 15.92 35.2058 15.888H35.1422L34.76 16.1428C34.3461 15.6972 33.9005 15.3152 33.4549 14.9332C31.536 13.4333 29.2267 12.5162 26.8016 12.2909L26.7698 11.8771L26.7062 11.8135C26.6106 11.7179 26.4834 11.6225 26.4514 11.3996C26.4196 10.8902 26.4834 10.3172 26.547 9.68057V9.64877C26.547 9.55317 26.5788 9.42596 26.6106 9.33036C26.6424 9.13955 26.6742 8.94835 26.7062 8.72553V8.43912C26.7062 7.8661 26.2604 7.38867 25.7194 7.38867C25.4646 7.38867 25.2099 7.51588 25.0189 7.70689C24.8281 7.8979 24.7325 8.15251 24.7325 8.43912V8.69373C24.7325 8.91654 24.7643 9.10755 24.8279 9.29856C24.8597 9.39416 24.8597 9.48957 24.8915 9.61697V9.64877C24.9551 10.2854 25.0507 10.8584 24.9871 11.3678C24.9553 11.5907 24.8279 11.6861 24.7325 11.7817L24.6689 11.8453L24.6369 12.2591C24.0639 12.3227 23.4909 12.3863 22.9179 12.5137C20.4667 13.0549 18.3021 14.2966 16.615 16.079L16.2966 15.8562H16.233C16.1694 15.8562 16.1056 15.888 16.042 15.888C15.9464 15.888 15.8509 15.8562 15.7553 15.7926C15.3415 15.5062 14.9277 15.0922 14.4821 14.6148C14.4185 14.5512 14.3549 14.4556 14.2593 14.392C14.1319 14.2328 14.0045 14.1054 13.8453 13.9464C13.8135 13.9144 13.7499 13.8827 13.6863 13.819C13.6545 13.7871 13.6226 13.7871 13.6226 13.7553C13.4254 13.5924 13.178 13.5024 12.9222 13.5005C12.6356 13.5005 12.3492 13.6279 12.19 13.8508C11.8716 14.2646 11.9672 14.9012 12.4128 15.2832C12.4446 15.2832 12.4446 15.3152 12.4764 15.3152C12.54 15.347 12.572 15.4106 12.6356 15.4424C12.8266 15.5696 12.9858 15.6652 13.1768 15.7608C13.2724 15.7926 13.3678 15.8562 13.4634 15.92C14.0363 16.2701 14.5139 16.5567 14.8959 16.9069C15.0551 17.0659 15.0551 17.2251 15.0551 17.3843V17.4479L15.3733 17.7345C15.3097 17.8299 15.2461 17.8937 15.2141 17.9891C13.6225 20.504 13.0176 23.4646 13.4314 26.3933L13.0176 26.5205C13.0176 26.5525 12.9858 26.5525 12.9858 26.5841C12.9222 26.7115 12.8266 26.8389 12.6356 26.9343C12.1582 27.0935 11.5852 27.1573 10.9167 27.2209H10.8847C10.7893 27.2209 10.6619 27.2209 10.5665 27.2527C10.3755 27.2527 10.1845 27.2845 9.96169 27.3163C9.89809 27.3163 9.83448 27.3483 9.77069 27.3483C9.73888 27.3483 9.70708 27.3483 9.67509 27.3801C9.10206 27.5073 8.75185 28.0486 8.84745 28.5578C8.94305 29.0036 9.35687 29.2902 9.86609 29.2902C9.96169 29.2902 10.0253 29.2902 10.1209 29.2582C10.1527 29.2582 10.1845 29.2582 10.1845 29.2264C10.2481 29.2264 10.3117 29.1946 10.3753 29.1946C10.5983 29.131 10.7575 29.0674 10.9485 28.9718C11.0439 28.94 11.1394 28.8762 11.235 28.8446H11.2668C11.8716 28.6216 12.4128 28.4306 12.9222 28.367H12.9858C13.1768 28.367 13.3042 28.4624 13.3996 28.5262C13.4314 28.5262 13.4314 28.558 13.4632 28.558L13.9091 28.4944C14.6731 30.8499 16.1374 32.951 18.0792 34.479C18.5249 34.8291 18.9705 35.1157 19.4481 35.4023L19.2571 35.8159C19.2571 35.8479 19.2889 35.8479 19.2889 35.8795C19.3525 36.0069 19.4161 36.1661 19.3525 36.3889C19.1617 36.8665 18.8751 37.344 18.5249 37.8852V37.917C18.4613 38.0126 18.3977 38.0762 18.334 38.1716C18.2066 38.3308 18.111 38.49 17.9836 38.681C17.9518 38.7128 17.92 38.7764 17.8882 38.8402C17.8882 38.872 17.8564 38.9038 17.8564 38.9038C17.6018 39.445 17.7928 40.0499 18.2702 40.2727C18.3975 40.3363 18.5249 40.3683 18.6523 40.3683C19.0343 40.3683 19.4163 40.1135 19.6073 39.7633C19.6073 39.7315 19.6391 39.6997 19.6391 39.6997C19.6709 39.6361 19.7027 39.5724 19.7345 39.5405C19.8301 39.3176 19.8619 39.1584 19.9255 38.9674L20.0211 38.681C20.2439 38.0444 20.4031 37.535 20.6896 37.0893C20.8168 36.8983 20.9762 36.8665 21.1034 36.8027C21.1352 36.8027 21.1352 36.8027 21.167 36.7709L21.39 36.3571C22.7906 36.8983 24.3187 37.1847 25.8466 37.1847C26.7698 37.1847 27.7249 37.0893 28.6163 36.8665C29.1772 36.7411 29.73 36.5816 30.2716 36.3889L30.4624 36.7391C30.4944 36.7391 30.4944 36.7391 30.5262 36.7709C30.6854 36.8027 30.8126 36.8665 30.94 37.0575C31.1946 37.5032 31.3856 38.0444 31.6084 38.6492V38.681L31.704 38.9674C31.7676 39.1584 31.7994 39.3494 31.8948 39.5405C31.9268 39.6041 31.9586 39.6361 31.9904 39.6997C31.9904 39.7315 32.0224 39.7633 32.0224 39.7633C32.2133 40.1453 32.5953 40.3683 32.9773 40.3683C33.1047 40.3683 33.2321 40.3363 33.3593 40.2727C33.5821 40.1455 33.7731 39.9543 33.8369 39.6997C33.9005 39.445 33.9005 39.1584 33.7733 38.9038C33.7733 38.872 33.7413 38.872 33.7413 38.8402C33.7095 38.7766 33.6777 38.713 33.6459 38.681C33.5503 38.49 33.4231 38.3308 33.2957 38.1716C33.2321 38.0762 33.1685 38.0126 33.1049 37.9172V37.8852C32.7545 37.344 32.4361 36.8665 32.277 36.3889C32.2134 36.1661 32.277 36.0389 32.3088 35.8797C32.3088 35.8479 32.3407 35.8479 32.3407 35.8161L32.1814 35.4341C33.8687 34.4472 35.3012 33.0464 36.3836 31.3275C36.9566 30.4361 37.4023 29.4492 37.7205 28.4624L38.1025 28.526C38.1345 28.526 38.1345 28.4942 38.1661 28.4942C38.2935 28.4306 38.3891 28.3352 38.5801 28.3352H38.6437C39.1531 28.3988 39.6942 28.5896 40.2992 28.8126H40.331C40.4264 28.8444 40.5218 28.908 40.6174 28.9398C40.8084 29.0354 40.9676 29.099 41.1904 29.1628C41.254 29.1628 41.3176 29.1946 41.3814 29.1946C41.4132 29.1946 41.445 29.1946 41.4768 29.2264C41.5724 29.2582 41.636 29.2582 41.7316 29.2582C42.2091 29.2582 42.6229 28.94 42.7503 28.5262C42.7503 28.1442 42.4001 27.6347 41.8271 27.4757V27.4755ZM27.088 25.9157L25.6874 26.5843L24.2867 25.9157L23.9367 24.4196L24.8915 23.2099H26.4514L27.4064 24.4196L27.0882 25.9157H27.088ZM35.3968 22.6051C35.6437 23.6578 35.719 24.7434 35.6196 25.8201L30.749 24.4196C30.3034 24.2924 30.0487 23.8466 30.1442 23.401C30.176 23.2736 30.2398 23.1462 30.3352 23.0507L34.1871 19.5808C34.7282 20.4722 35.142 21.4911 35.3968 22.6051ZM32.6591 17.6709L28.4889 20.6314C28.1387 20.8542 27.6611 20.7904 27.3746 20.4404C27.2792 20.3448 27.2474 20.2174 27.2154 20.0902L26.929 14.9012C29.097 15.1508 31.1166 16.1271 32.6591 17.6709ZM23.4273 15.0602C23.7775 14.9966 24.0957 14.933 24.4459 14.8694L24.1595 19.9626C24.1277 20.4082 23.7775 20.7903 23.2999 20.7903C23.1727 20.7903 23.0135 20.7585 22.9179 20.6948L18.6841 17.6709C19.9893 16.3657 21.6128 15.474 23.4273 15.0602ZM17.156 19.5806L20.9442 22.955C21.2944 23.2416 21.3262 23.7826 21.0398 24.1328C20.9442 24.26 20.817 24.3556 20.6578 24.3876L15.7235 25.8201C15.5325 23.6554 16.01 21.4589 17.156 19.5806ZM16.2964 28.2076L21.3582 27.3479C21.772 27.3161 22.154 27.6027 22.2494 28.0166C22.2812 28.2074 22.2812 28.3668 22.2176 28.526L20.2757 33.2054C18.4931 32.0593 17.0604 30.3085 16.2964 28.2076ZM27.9159 34.5424C27.1836 34.7016 26.4514 34.7971 25.6874 34.7971C24.5733 34.7971 23.4909 34.6062 22.4724 34.2878L24.9871 29.7356C25.2417 29.449 25.6556 29.3218 26.0058 29.5128C26.1544 29.6039 26.2841 29.7227 26.3878 29.8628L28.8389 34.2878C28.5525 34.3832 28.2341 34.447 27.9157 34.5424H27.9159ZM34.1233 30.1177C33.3275 31.3909 32.2769 32.4096 31.0674 33.2054L29.0619 28.3984C28.9663 28.0166 29.1255 27.6027 29.5075 27.4115C29.6347 27.3479 29.7939 27.3161 29.9531 27.3161L35.0466 28.1758C34.8556 28.876 34.5371 29.5128 34.1233 30.1177Z" fill="white"/>
</g>
<defs>
<clipPath id="clip0_189_370">
<rect width="49.3421" height="48" fill="white" transform="translate(0.920898)"/>
</clipPath>
</defs>
</svg>
