<svg width="27" height="18" viewBox="0 0 27 18" fill="none" xmlns="http://www.w3.org/2000/svg">
<path d="M13.302 6.56556C15.6568 2.85341 17.7222 1 19.4996 1C22.1664 1 23.8504 3.95079 24.8331 7.95629C25.7719 11.7818 25.4998 17.0007 22.1664 17.0007C20.681 17.0007 18.6356 14.9139 16.6355 12.1311C15.3628 10.3776 14.2473 8.51517 13.302 6.56556ZM13.302 6.56556C10.9472 2.85341 8.88182 1 7.10441 1C4.43763 1 2.75356 3.95079 1.77086 7.95629C0.832151 11.7818 1.10416 17.0007 4.43763 17.0007C5.92303 17.0007 7.96845 14.9139 9.96853 12.1311C11.3019 10.2764 12.4126 8.42031 13.302 6.56556Z" stroke="#ADADAD" stroke-width="2" stroke-linecap="round" stroke-linejoin="round"/>
</svg>
