<svg width="15" height="24" viewBox="0 0 15 24" fill="none" xmlns="http://www.w3.org/2000/svg">
<path d="M11.5223 0H3.78037C2.95934 0.000922106 2.17219 0.327485 1.59164 0.908043C1.01108 1.4886 0.684516 2.27574 0.683594 3.09677V20.9032C0.684516 21.7243 1.01108 22.5114 1.59164 23.092C2.17219 23.6725 2.95934 23.9991 3.78037 24H11.5223C12.3433 23.9991 13.1305 23.6725 13.711 23.092C14.2916 22.5114 14.6182 21.7243 14.6191 20.9032V3.09677C14.6182 2.27574 14.2916 1.4886 13.711 0.908043C13.1305 0.327485 12.3433 0.000922106 11.5223 0ZM1.45779 3.87097H13.8449V18.5806H1.45779V3.87097ZM3.78037 0.774194H11.5223C12.1381 0.774808 12.7285 1.01971 13.1639 1.45514C13.5994 1.89058 13.8443 2.48098 13.8449 3.09677H1.45779C1.4584 2.48098 1.7033 1.89058 2.13873 1.45514C2.57417 1.01971 3.16457 0.774808 3.78037 0.774194ZM11.5223 23.2258H3.78037C3.16457 23.2252 2.57417 22.9803 2.13873 22.5449C1.7033 22.1094 1.4584 21.519 1.45779 20.9032V19.3548H13.8449V20.9032C13.8443 21.519 13.5994 22.1094 13.1639 22.5449C12.7285 22.9803 12.1381 23.2252 11.5223 23.2258Z" fill="#ADADAD"/>
<path d="M7.65128 20.1289C7.4216 20.1289 7.19708 20.197 7.0061 20.3246C6.81513 20.4522 6.66628 20.6336 6.57839 20.8458C6.49049 21.058 6.4675 21.2915 6.5123 21.5168C6.55711 21.742 6.66772 21.9489 6.83012 22.1114C6.99253 22.2738 7.19946 22.3844 7.42472 22.4292C7.64999 22.474 7.88349 22.451 8.09569 22.3631C8.30788 22.2752 8.48925 22.1263 8.61686 21.9354C8.74446 21.7444 8.81257 21.5199 8.81257 21.2902C8.81257 20.9822 8.69022 20.6868 8.47244 20.469C8.25465 20.2513 7.95927 20.1289 7.65128 20.1289ZM7.65128 21.6773C7.57472 21.6773 7.49988 21.6546 7.43622 21.6121C7.37256 21.5695 7.32295 21.5091 7.29365 21.4383C7.26435 21.3676 7.25669 21.2898 7.27162 21.2147C7.28656 21.1396 7.32343 21.0706 7.37756 21.0165C7.4317 20.9623 7.50067 20.9255 7.57576 20.9105C7.65085 20.8956 7.72868 20.9033 7.79942 20.9326C7.87015 20.9619 7.93061 21.0115 7.97314 21.0751C8.01568 21.1388 8.03838 21.2136 8.03838 21.2902C8.03838 21.3929 7.99759 21.4913 7.925 21.5639C7.85241 21.6365 7.75395 21.6773 7.65128 21.6773Z" fill="#ADADAD"/>
<path d="M8.8127 1.54883H6.49012C6.38746 1.54883 6.289 1.58961 6.21641 1.66221C6.14381 1.7348 6.10303 1.83326 6.10303 1.93592C6.10303 2.03859 6.14381 2.13705 6.21641 2.20964C6.289 2.28224 6.38746 2.32302 6.49012 2.32302H8.8127C8.91537 2.32302 9.01383 2.28224 9.08642 2.20964C9.15902 2.13705 9.1998 2.03859 9.1998 1.93592C9.1998 1.83326 9.15902 1.7348 9.08642 1.66221C9.01383 1.58961 8.91537 1.54883 8.8127 1.54883Z" fill="#ADADAD"/>
</svg>
