<svg width="54" height="48" viewBox="0 0 54 48" fill="none" xmlns="http://www.w3.org/2000/svg">
<path d="M53.9998 24.0055C53.9998 20.4349 49.5283 17.051 42.6728 14.9526C44.2548 7.96521 43.5517 2.40604 40.4535 0.62623C39.7394 0.208743 38.9044 0.0109863 37.9925 0.0109863V2.46098C38.4979 2.46098 38.9044 2.55985 39.245 2.74662C40.7391 3.60357 41.3874 6.86656 40.882 11.0634C40.7611 12.0961 40.5634 13.1838 40.3217 14.2934C38.1683 13.7661 35.8172 13.3596 33.3452 13.0959C31.8621 11.0634 30.3239 9.21767 28.7749 7.60265C32.3564 4.27375 35.7183 2.44999 38.0035 2.44999V0C34.9822 0 31.0271 2.15335 27.028 5.88876C23.0289 2.17533 19.0738 0.0439461 16.0525 0.0439461V2.49393C18.3267 2.49393 21.6995 4.30671 25.2811 7.61364C23.743 9.22866 22.2049 11.0634 20.7437 13.0959C18.2608 13.3596 15.9097 13.7661 13.7563 14.3044C13.5036 13.2058 13.3169 12.1401 13.185 11.1183C12.6686 6.92149 13.3059 3.6585 14.789 2.79057C15.1186 2.59281 15.5471 2.50492 16.0525 2.50492V0.0549325C15.1296 0.0549325 14.2946 0.252689 13.5695 0.670176C10.4823 2.44999 9.79019 7.99817 11.3832 14.9636C4.54963 17.073 0.100098 20.4459 0.100098 24.0055C0.100098 27.5761 4.5716 30.9599 11.4272 33.0584C9.84512 40.0458 10.5483 45.6049 13.6464 47.3848C14.3606 47.8022 15.1955 48 16.1184 48C19.1397 48 23.0948 45.8466 27.0939 42.1112C31.093 45.8247 35.0481 47.9561 38.0694 47.9561C38.9923 47.9561 39.8273 47.7583 40.5524 47.3408C43.6396 45.561 44.3317 40.0128 42.7387 33.0474C49.5503 30.949 53.9998 27.5651 53.9998 24.0055ZM39.6954 16.6775C39.2889 18.0948 38.7835 19.556 38.2122 21.0172C37.7618 20.1382 37.2894 19.2593 36.773 18.3804C36.2676 17.5015 35.7293 16.6445 35.191 15.8096C36.7511 16.0403 38.2562 16.3259 39.6954 16.6775ZM34.6636 28.3781C33.8067 29.8613 32.9277 31.2676 32.0159 32.575C30.3789 32.7178 28.7199 32.7947 27.05 32.7947C25.391 32.7947 23.7321 32.7178 22.106 32.5859C21.1942 31.2786 20.3043 29.8833 19.4473 28.4111C18.6123 26.9718 17.8543 25.5106 17.1621 24.0384C17.8433 22.5663 18.6123 21.0941 19.4363 19.6548C20.2933 18.1717 21.1722 16.7654 22.0841 15.458C23.7211 15.3152 25.38 15.2383 27.05 15.2383C28.7089 15.2383 30.3679 15.3152 31.9939 15.447C32.9058 16.7544 33.7957 18.1497 34.6526 19.6219C35.4876 21.0611 36.2457 22.5223 36.9378 23.9945C36.2457 25.4667 35.4876 26.9389 34.6636 28.3781ZM38.2122 26.9499C38.8055 28.4221 39.3109 29.8943 39.7284 31.3225C38.2892 31.6741 36.773 31.9707 35.202 32.2014C35.7403 31.3555 36.2786 30.4875 36.784 29.5976C37.2894 28.7187 37.7618 27.8288 38.2122 26.9499ZM27.0719 38.6725C26.0502 37.6178 25.0285 36.4422 24.0177 35.1568C25.0065 35.2007 26.0172 35.2337 27.039 35.2337C28.0717 35.2337 29.0935 35.2117 30.0932 35.1568C29.1044 36.4422 28.0827 37.6178 27.0719 38.6725ZM18.898 32.2014C17.3379 31.9707 15.8328 31.6851 14.3935 31.3335C14.8 29.9162 15.3054 28.455 15.8767 26.9938C16.3272 27.8727 16.7996 28.7517 17.3159 29.6306C17.8323 30.5095 18.3597 31.3664 18.898 32.2014ZM27.017 9.33852C28.0388 10.3932 29.0605 11.5688 30.0713 12.8542C29.0825 12.8103 28.0717 12.7773 27.05 12.7773C26.0172 12.7773 24.9955 12.7993 23.9957 12.8542C24.9845 11.5688 26.0063 10.3932 27.017 9.33852ZM18.887 15.8096C18.3487 16.6555 17.8103 17.5235 17.3049 18.4134C16.7996 19.2923 16.3272 20.1712 15.8767 21.0501C15.2834 19.5779 14.7781 18.1057 14.3606 16.6775C15.7998 16.3369 17.3159 16.0403 18.887 15.8096ZM8.94423 29.5647C5.05501 27.9057 2.5391 25.7304 2.5391 24.0055C2.5391 22.2806 5.05501 20.0943 8.94423 18.4463C9.88907 18.0398 10.9218 17.6773 11.9875 17.3367C12.6137 19.49 13.4377 21.7313 14.4594 24.0275C13.4487 26.3127 12.6357 28.5429 12.0204 30.6853C10.9328 30.3447 9.90005 29.9712 8.94423 29.5647ZM14.855 45.2644C13.3608 44.4074 12.7126 41.1444 13.218 36.9476C13.3388 35.9149 13.5366 34.8272 13.7783 33.7176C15.9316 34.2449 18.2827 34.6514 20.7547 34.9151C22.2379 36.9476 23.776 38.7933 25.3251 40.4083C21.7435 43.7372 18.3816 45.561 16.0964 45.561C15.602 45.55 15.1846 45.4511 14.855 45.2644ZM40.9149 36.8926C41.4313 41.0895 40.7941 44.3525 39.3109 45.2204C38.9813 45.4182 38.5528 45.5061 38.0474 45.5061C35.7732 45.5061 32.4004 43.6933 28.8188 40.3864C30.3569 38.7713 31.895 36.9366 33.3562 34.9041C35.8392 34.6404 38.1903 34.2339 40.3436 33.6956C40.5963 34.8052 40.7941 35.8709 40.9149 36.8926ZM45.1447 29.5647C44.1999 29.9712 43.1672 30.3337 42.1015 30.6743C41.4752 28.5209 40.6513 26.2797 39.6295 23.9835C40.6403 21.6983 41.4533 19.4681 42.0685 17.3257C43.1562 17.6663 44.1889 18.0398 45.1557 18.4463C49.0449 20.1053 51.5608 22.2806 51.5608 24.0055C51.5499 25.7304 49.0339 27.9167 45.1447 29.5647Z" fill="#2B2B2B"/>
<path d="M27.0389 29.026C29.8118 29.026 32.0597 26.7781 32.0597 24.0052C32.0597 21.2323 29.8118 18.9844 27.0389 18.9844C24.266 18.9844 22.0181 21.2323 22.0181 24.0052C22.0181 26.7781 24.266 29.026 27.0389 29.026Z" fill="#2B2B2B"/>
</svg>
