<svg width="32" height="32" viewBox="0 0 32 32" fill="none" xmlns="http://www.w3.org/2000/svg">
<path d="M26.6667 5.33333C30.3467 8.96 31.7333 14.0267 30.8622 18.7556C31.5911 20.0356 32 21.5289 32 23.1111C32 25.4686 31.0635 27.7295 29.3965 29.3965C27.7295 31.0635 25.4686 32 23.1111 32C21.5289 32 20.0356 31.5911 18.7556 30.8622C14.0267 31.7333 8.96 30.3467 5.33333 26.6667C1.65333 23.04 0.266667 17.9733 1.13778 13.2444C0.408889 11.9644 0 10.4711 0 8.88889C0 6.53141 0.936505 4.27049 2.6035 2.6035C4.27049 0.936505 6.53141 0 8.88889 0C10.4711 0 11.9644 0.408889 13.2444 1.13778C17.9733 0.266667 23.04 1.65333 26.6667 5.33333ZM16.0711 25.1733C21.1733 25.1733 23.7156 22.72 23.7156 19.4133C23.7156 17.2978 22.72 15.04 18.8622 14.1689L15.3244 13.3867C13.9733 13.0844 12.4444 12.6756 12.4444 11.4133C12.4444 10.1333 13.5111 9.24444 15.4667 9.24444C19.4311 9.24444 19.0578 11.9644 21.0311 11.9644C22.0622 11.9644 22.9511 11.36 22.9511 10.3111C22.9511 7.87556 19.0578 6.04444 15.7511 6.04444C12.1778 6.04444 8.35556 7.57333 8.35556 11.6267C8.35556 13.5822 9.04889 15.6622 12.8889 16.6222L17.6711 17.8311C19.1111 18.1867 19.4667 18.9867 19.4667 19.7333C19.4667 20.9422 18.2578 22.1333 16.0711 22.1333C11.7867 22.1333 12.3733 18.8444 10.08 18.8444C9.04889 18.8444 8.30222 19.5556 8.30222 20.5689C8.30222 22.5422 10.6667 25.1733 16.0711 25.1733Z" fill="#2B2B2B"/>
</svg>
