<svg width="23" height="22" viewBox="0 0 23 22" fill="none" xmlns="http://www.w3.org/2000/svg">
<path d="M22.2759 0H19.6978C19.3418 0 19.0532 0.288578 19.0532 0.644531V1.28906H13.7431C13.4771 0.538914 12.7607 0 11.9204 0C11.0802 0 10.3637 0.538914 10.0977 1.28906H4.7876V0.644531C4.7876 0.288578 4.49902 0 4.14307 0H1.56494C1.20899 0 0.92041 0.288578 0.92041 0.644531V3.22266C0.92041 3.57861 1.20899 3.86719 1.56494 3.86719H4.14307C4.49902 3.86719 4.7876 3.57861 4.7876 3.22266V2.56953H7.46786C5.14256 4.04224 3.72906 6.53018 3.55904 9.17134C2.79978 9.43241 2.25244 10.1533 2.25244 11C2.25244 12.0662 3.11985 12.9336 4.18604 12.9336C5.25222 12.9336 6.11963 12.0662 6.11963 11C6.11963 10.1673 5.59047 9.45579 4.85076 9.18414C5.07961 6.14853 7.26552 3.53401 10.1886 2.7922C10.5054 3.42865 11.1625 3.86719 11.9204 3.86719C12.6783 3.86719 13.3354 3.42865 13.6522 2.79224C16.5753 3.53405 18.7612 6.14857 18.9901 9.18418C18.2504 9.45579 17.7212 10.1673 17.7212 11C17.7212 12.0662 18.5886 12.9336 19.6548 12.9336C20.721 12.9336 21.5884 12.0662 21.5884 11C21.5884 10.1533 21.041 9.43241 20.2818 9.17134C20.1114 6.52489 18.6937 4.04796 16.373 2.57812H19.0532V3.22266C19.0532 3.57861 19.3418 3.86719 19.6978 3.86719H22.2759C22.6318 3.86719 22.9204 3.57861 22.9204 3.22266V0.644531C22.9204 0.288578 22.6318 0 22.2759 0ZM3.49854 2.57812H2.20947V1.28906H3.49854V2.57812ZM4.18604 11.6445C3.83064 11.6445 3.5415 11.3554 3.5415 11C3.5415 10.6446 3.83064 10.3555 4.18604 10.3555C4.54143 10.3555 4.83057 10.6446 4.83057 11C4.83057 11.3554 4.54143 11.6445 4.18604 11.6445ZM11.9204 2.57812C11.565 2.57812 11.2759 2.28899 11.2759 1.93359C11.2759 1.5782 11.565 1.28906 11.9204 1.28906C12.2758 1.28906 12.5649 1.5782 12.5649 1.93359C12.5649 2.28899 12.2758 2.57812 11.9204 2.57812ZM19.6548 10.3555C20.0102 10.3555 20.2993 10.6446 20.2993 11C20.2993 11.3554 20.0102 11.6445 19.6548 11.6445C19.2994 11.6445 19.0103 11.3554 19.0103 11C19.0103 10.6446 19.2994 10.3555 19.6548 10.3555ZM21.6313 2.57812H20.3423V1.28906H21.6313V2.57812Z" fill="#ADADAD"/>
<path d="M17.6129 13.2201L12.4567 5.48581C12.4565 5.48555 12.4563 5.48529 12.4561 5.48499C12.4542 5.48224 12.4522 5.47962 12.4503 5.47691C12.4415 5.46406 12.4322 5.45169 12.4225 5.43961C12.1508 5.10214 11.6337 5.12491 11.3905 5.47691C11.3886 5.47962 11.3866 5.48224 11.3847 5.48499C11.3845 5.48529 11.3843 5.4855 11.3842 5.48581L6.22791 13.2202C6.05745 13.4758 6.09118 13.8162 6.30843 14.0334C7.59435 15.3194 8.41282 17.0003 8.63579 18.7987C8.53571 18.8796 8.43908 18.9663 8.34747 19.06C7.74208 19.6793 7.40869 20.4944 7.40869 21.355C7.40869 21.711 7.69726 21.9996 8.05322 21.9996H15.7876C16.1435 21.9996 16.4321 21.711 16.4321 21.355C16.4321 20.4944 16.0987 19.6793 15.4934 19.06C15.4017 18.9662 15.3051 18.8796 15.205 18.7987C15.4279 17.0002 16.2464 15.3192 17.5323 14.0334C17.7496 13.8162 17.7834 13.4758 17.6129 13.2201ZM11.9204 12.9331C12.2758 12.9331 12.5649 13.2223 12.5649 13.5777C12.5649 13.9331 12.2758 14.2222 11.9204 14.2222C11.565 14.2222 11.2759 13.9331 11.2759 13.5777C11.2759 13.2223 11.565 12.9331 11.9204 12.9331ZM8.80766 20.7105C9.07583 19.9442 9.80278 19.3785 10.6313 19.3785H13.2095C14.038 19.3785 14.765 19.9442 15.0331 20.7105H8.80766ZM13.9934 18.1875C13.7399 18.1228 13.4771 18.0894 13.2095 18.0894H10.6313C10.3637 18.0894 10.1009 18.1228 9.84738 18.1875C9.54574 16.4504 8.76237 14.8265 7.58507 13.5083L11.2759 7.97206V11.755C10.5257 12.021 9.98681 12.7375 9.98681 13.5777C9.98681 14.6439 10.8542 15.5113 11.9204 15.5113C12.9866 15.5113 13.854 14.6439 13.854 13.5777C13.854 12.7375 13.3151 12.021 12.5649 11.755V7.97206L16.2558 13.5083C15.0784 14.8264 14.295 16.4503 13.9934 18.1875Z" fill="#ADADAD"/>
</svg>
