<svg width="24" height="24" viewBox="0 0 24 24" fill="none" xmlns="http://www.w3.org/2000/svg">
<path d="M12.0003 23.9997C11.931 24.0006 11.8613 23.9992 11.7917 23.9979C11.771 23.9989 11.7493 23.9984 11.7297 23.9993C11.6884 23.9993 11.6474 23.9972 11.6067 23.9933C7.62035 23.8641 4.12007 21.7816 2.03293 18.6751C2.00949 18.6493 1.98982 18.62 1.97489 18.588C0.724307 16.6912 -0.00298778 14.42 0.000500774 11.9828C0.00510567 8.77749 1.25764 5.76589 3.52729 3.50279C5.70778 1.32858 8.57677 0.0951679 11.6408 0.00558169C11.6817 0.00195359 11.7285 0.00446536 11.7642 0C11.7853 0 11.8063 0.000558169 11.8273 0.00167451C11.8908 0.000697712 11.9538 0.000558169 12.0173 0.000418627C15.2226 0.00488398 18.2342 1.25742 20.4975 3.52707C22.7607 5.79673 24.0046 8.81196 24 12.0172C23.9965 14.452 23.2637 16.7191 22.01 18.6115C21.9939 18.6473 21.9719 18.6798 21.9452 18.708C19.7862 21.8991 16.1331 23.9995 12.0003 23.9997ZM11.5933 23.2857C11.6607 23.2913 11.7283 23.2953 11.7963 23.2981C12.4595 23.2267 13.1698 22.0602 13.7093 20.1467C13.828 19.7257 13.9363 19.2776 14.0341 18.8064L9.44054 18.7998C9.53682 19.2715 9.64399 19.7198 9.76149 20.1411C10.2761 21.9867 10.9515 23.139 11.5933 23.2857ZM14.7458 18.8074C14.6374 19.3468 14.5156 19.858 14.3809 20.3359C14.0239 21.602 13.6 22.5528 13.1235 23.1679C15.0461 22.7087 16.7258 21.0989 17.8542 18.8118L14.7458 18.8074ZM6.12683 18.795C7.11939 20.8213 8.5451 22.3187 10.191 22.9589C9.77628 22.3442 9.40551 21.4625 9.08931 20.3284C8.95605 19.8502 8.83562 19.3383 8.72887 18.7987L6.12683 18.795ZM18.6143 18.813C17.852 20.453 16.8232 21.7978 15.6224 22.7067C17.7852 21.973 19.6563 20.6012 21.01 18.8163L18.6143 18.813ZM2.97108 18.7905C4.31975 20.5791 6.18655 21.9564 8.34709 22.6963C7.14898 21.7838 6.12418 20.4363 5.36646 18.7938L2.97108 18.7905ZM18.9153 18.1157L21.4987 18.1193C22.5776 16.4504 23.2289 14.4803 23.2964 12.365L20.0416 12.3604C19.9982 14.4573 19.5927 16.4206 18.9153 18.1157ZM14.8757 18.1098L18.1723 18.1145C18.8746 16.4451 19.2989 14.4747 19.3439 12.3594L15.3606 12.3537C15.3408 14.4128 15.1731 16.3834 14.8757 18.1098ZM9.30867 18.102L14.1678 18.109C14.4715 16.3947 14.6428 14.4213 14.6628 12.3527L8.83018 12.3443C8.84427 14.4129 9.01005 16.3867 9.30867 18.102ZM5.8109 18.097L8.60091 18.1009C8.30843 16.3733 8.14642 14.4026 8.13261 12.3434L4.65563 12.3383C4.69456 14.4538 5.11333 16.4254 5.8109 18.097ZM2.48449 18.0921L5.0677 18.0957C4.39525 16.3987 3.99532 14.4344 3.95792 12.3372L0.703096 12.3328C0.764495 14.4482 1.41016 16.4201 2.48449 18.0921ZM20.0427 11.6627L23.2975 11.6673C23.2402 9.66721 22.6654 7.75534 21.6367 6.08614L19.012 6.08251C19.6518 7.77097 20.0078 9.67684 20.0427 11.6627ZM15.3616 11.656L19.3448 11.6617C19.3084 9.66121 18.934 7.7506 18.2631 6.0814L14.9227 6.07665C15.1967 7.76079 15.3482 9.66735 15.3616 11.656ZM8.8313 11.6466L14.6639 11.655C14.6504 9.65773 14.4953 7.74879 14.2158 6.07567L9.29542 6.06856C9.01103 7.74083 8.85055 9.64935 8.8313 11.6466ZM4.65675 11.6406L8.13359 11.6456C8.15256 9.65703 8.30969 7.75088 8.58835 6.06744L5.75439 6.06339C5.07859 7.73065 4.69875 9.64028 4.65675 11.6406ZM0.703934 11.635L3.95876 11.6396C3.99923 9.65396 4.36078 7.74907 5.00547 6.06228L2.38081 6.05865C1.34736 7.72478 0.767146 9.63498 0.703934 11.635ZM18.7257 5.38438L21.1693 5.38773C20.8205 4.90631 20.4313 4.44875 20.0035 4.01966C18.7656 2.77829 17.2901 1.85982 15.6789 1.30723C16.4357 1.88508 17.1328 2.64712 17.7457 3.57745C18.1142 4.13729 18.4417 4.74249 18.7257 5.38438ZM14.7998 5.37866L17.9583 5.38326C17.7214 4.88175 17.4557 4.40619 17.1628 3.96133C16.0541 2.27775 14.6607 1.19909 13.1554 0.8353C13.6302 1.45194 14.0514 2.4039 14.4048 3.67094C14.5527 4.20148 14.6847 4.77305 14.7998 5.37866ZM9.42393 5.37099L14.0893 5.37768C13.9839 4.84044 13.8649 4.33237 13.7327 3.85821C13.1988 1.94396 12.4921 0.775716 11.8292 0.701479C11.7611 0.703991 11.693 0.707898 11.6252 0.71334C10.983 0.858604 10.3047 2.00885 9.78493 3.85262C9.65139 4.32623 9.53082 4.83417 9.42393 5.37099ZM6.0611 5.3661L8.71324 5.36987C8.83018 4.76453 8.96372 4.19339 9.11317 3.66341C9.43272 2.5299 9.806 1.64911 10.2227 1.03568C8.96763 1.51934 7.8111 2.51232 6.86068 3.94654C6.56653 4.39056 6.29944 4.86542 6.0611 5.3661ZM2.85023 5.36164L5.2939 5.36498C5.57968 4.72393 5.90886 4.11985 6.27921 3.56112C6.89473 2.63233 7.59398 1.87238 8.35239 1.29663C6.73984 1.84475 5.26153 2.75889 4.02016 3.99677C3.59092 4.42475 3.20035 4.88105 2.85023 5.36164Z" fill="#ADADAD"/>
</svg>
